<?xml version="1.0" encoding="UTF-8"?>
<svg version="1.0" xmlns="http://www.w3.org/2000/svg"
 width="600pt" height="600pt" viewBox="0 0 600 600"
 preserveAspectRatio="xMidYMid meet">
<defs>
  <linearGradient id="excGold" x1="0%" y1="0%" x2="100%" y2="100%" gradientUnits="objectBoundingBox">
    <stop offset="0%" stop-color="#f5c200"/>
    <stop offset="48%" stop-color="#e6b800"/>
    <stop offset="100%" stop-color="#b8960b"/>
  </linearGradient>
</defs>
<g transform="translate(0,600) scale(0.1,-0.1)">
<path fill="url(#excGold)" stroke="none" d="M2054 5831 c-17 -10 -50 -42 -74 -70 -23 -28 -126 -117 -229 -198
-102 -80 -215 -172 -250 -202 -86 -75 -109 -132 -76 -194 8 -15 12 -34 9 -42
-4 -9 9 -21 36 -35 24 -12 38 -25 34 -32 -4 -6 -3 -8 4 -4 17 10 11 45 -7 38
-9 -3 -12 -1 -7 6 4 8 2 10 -7 6 -17 -6 -30 10 -33 42 -3 28 19 22 33 -8 8
-20 10 -20 16 -4 4 9 3 15 -1 13 -10 -6 -37 25 -37 43 0 8 4 20 8 26 4 7 1 17
-6 23 -11 9 -13 5 -12 -19 1 -18 -5 -35 -14 -42 -13 -10 -14 -10 -4 1 8 9 8
19 2 30 -7 11 -7 25 2 46 7 17 12 33 11 37 -1 4 4 5 11 2 17 -6 51 31 42 45
-3 6 -1 11 5 11 6 0 23 12 37 28 15 15 23 22 19 15 -3 -6 -1 -15 5 -19 8 -4 9
-3 5 4 -4 6 3 19 15 29 12 10 30 26 41 36 21 19 33 23 22 5 -4 -7 -3 -8 5 -4
6 4 8 12 5 18 -5 8 -1 9 10 5 9 -4 15 -3 12 2 -7 11 39 53 48 44 4 -5 6 -2 4
6 -1 7 3 16 11 19 9 3 11 0 6 -9 -5 -8 -4 -11 1 -6 5 5 9 12 9 16 0 5 15 20
33 35 30 26 46 24 20 -2 -9 -9 -9 -12 0 -12 7 0 12 5 12 10 0 6 10 20 22 32
19 19 20 21 2 15 -14 -5 -12 -2 6 13 14 11 30 20 35 19 6 0 2 -5 -7 -13 -15
-11 -15 -15 -3 -27 14 -15 17 -7 -57 -167 -11 -24 -23 -41 -25 -38 -3 3 5 26
18 52 12 26 22 53 22 60 0 7 3 11 6 9 3 -2 14 14 23 36 9 21 12 41 8 44 -5 3
-12 -6 -16 -20 -3 -14 -11 -22 -17 -18 -6 3 -7 1 -3 -5 4 -6 3 -19 -3 -29 -8
-17 -33 -73 -36 -83 -1 -3 -5 -13 -10 -23 -7 -17 -8 -17 -21 0 -13 16 -13 15
-3 -9 7 -15 16 -25 20 -22 15 9 11 -2 -37 -101 -46 -96 -46 -96 -67 -78 -12 9
-17 11 -10 4 9 -10 8 -21 -5 -47 -8 -19 -19 -34 -24 -34 -4 0 -8 -6 -8 -14 0
-7 -6 -19 -14 -26 -8 -6 -12 -19 -9 -27 4 -11 18 8 44 58 21 41 38 71 39 67 0
-11 -81 -178 -87 -178 -3 0 -3 7 0 15 4 8 2 17 -2 20 -5 3 -11 -2 -15 -10 -3
-8 -15 -15 -26 -15 -11 0 -21 -4 -21 -10 -3 -20 -5 -25 -16 -45 -12 -20 -14
-19 -78 14 -36 19 -65 36 -65 37 0 2 10 19 21 39 21 36 21 53 -1 40 -6 -4 -26
-39 -44 -79 -18 -39 -191 -361 -385 -715 -193 -354 -351 -650 -351 -657 0 -8
5 -14 12 -14 6 0 9 3 5 6 -6 6 47 111 136 269 29 53 50 79 60 77 9 -1 18 2 22
8 3 6 0 7 -9 4 -17 -6 -20 4 -10 30 3 9 11 13 17 9 6 -3 7 -1 3 6 -4 6 -3 17
2 24 10 12 63 108 90 162 8 17 43 80 77 140 34 61 76 137 94 170 17 33 49 92
72 130 22 39 45 82 50 98 6 15 16 27 22 27 6 0 8 3 4 6 -3 3 4 23 17 43 12 20
35 62 51 94 29 60 43 76 54 60 3 -6 16 -13 29 -17 12 -4 20 -11 18 -15 -3 -4
5 -8 16 -8 41 -3 41 -19 -2 -96 -23 -42 -42 -80 -42 -84 -1 -4 -8 -14 -15 -21
-7 -7 -13 -21 -13 -30 0 -27 22 3 80 107 29 52 66 113 83 135 18 23 33 43 34
45 1 1 6 1 10 -2 5 -3 -15 -57 -45 -119 -30 -62 -55 -118 -55 -124 0 -7 -34
-31 -76 -55 -71 -40 -181 -137 -181 -160 0 -6 5 -7 10 -4 6 3 10 1 10 -5 0 -7
-7 -10 -15 -7 -12 5 -37 -23 -78 -89 -3 -6 4 -16 18 -22 23 -11 27 -7 71 64
25 41 52 78 58 82 7 4 22 22 35 40 16 23 52 47 126 82 122 59 168 105 242 244
122 230 273 412 362 436 83 22 150 -9 251 -117 78 -84 238 -294 395 -518 276
-394 403 -541 570 -654 141 -97 193 -157 214 -250 8 -35 6 -42 -13 -56 -22
-17 -19 -16 32 5 39 17 41 36 11 115 -28 76 -104 156 -219 230 -64 41 -118 87
-163 137 -63 69 -176 211 -215 268 -115 169 -418 566 -528 692 -132 152 -204
198 -307 198 -124 0 -238 -115 -388 -391 -98 -182 -128 -227 -163 -248 -42
-27 -65 -28 -44 -3 9 9 70 128 136 264 67 135 159 322 205 416 46 93 92 189
101 214 10 24 34 63 54 87 46 52 91 62 140 32 44 -28 41 -46 -3 -20 -49 29
-96 20 -130 -26 -15 -18 -27 -43 -28 -54 -1 -12 -5 -21 -9 -21 -4 0 -8 -5 -8
-12 0 -6 -91 -194 -202 -417 -229 -458 -225 -449 -203 -431 8 7 15 19 15 26 0
8 5 14 10 14 6 0 10 6 10 13 0 22 56 118 64 110 4 -4 4 0 0 10 -4 10 0 19 9
23 9 3 13 13 9 26 -4 16 -2 19 8 13 9 -6 11 -4 5 5 -5 8 1 20 16 32 13 11 18
17 12 13 -7 -3 -13 -4 -13 -1 0 12 36 63 45 65 6 2 12 5 15 8 3 4 -1 3 -7 -1
-20 -11 -15 8 6 31 11 12 18 23 15 26 -9 8 19 56 29 50 6 -3 7 -1 4 4 -10 16
22 85 35 77 6 -4 8 -3 5 3 -9 14 27 86 38 76 4 -4 5 -3 2 3 -3 6 13 51 37 100
24 49 46 99 50 112 4 12 12 20 17 17 5 -4 9 -1 9 4 0 6 -6 11 -12 11 -7 1 1
12 17 26 17 15 24 23 17 19 -11 -6 -11 -3 0 14 7 12 16 22 20 22 5 1 12 2 17
3 5 0 13 4 17 9 4 4 12 7 18 7 6 0 4 -5 -4 -11 -12 -8 -11 -9 5 -5 14 4 30 -3
49 -21 25 -23 28 -31 23 -69 -4 -43 7 -62 16 -26 2 9 4 -2 4 -25 -1 -23 5 -53
12 -67 16 -28 8 -61 -11 -50 -10 6 -9 3 0 -9 8 -9 11 -21 7 -26 -3 -6 1 -23 9
-38 l15 -28 1 37 c0 20 -5 40 -10 43 -6 4 -8 11 -5 16 4 5 32 -26 64 -68 104
-141 351 -455 351 -447 0 15 49 -39 60 -67 7 -16 16 -26 21 -23 5 3 9 -2 9
-10 0 -9 9 -21 20 -28 11 -7 20 -18 20 -24 0 -18 57 -84 65 -76 5 4 5 2 2 -4
-4 -7 7 -26 23 -44 16 -18 27 -37 23 -44 -3 -6 -3 -8 2 -4 4 4 16 -3 25 -15
32 -38 34 -10 3 32 -17 23 -33 38 -36 34 -4 -3 -7 1 -7 11 0 9 -11 28 -25 42
-14 14 -23 29 -20 35 3 5 -1 6 -10 3 -9 -4 -15 -3 -14 2 4 21 -2 35 -11 29 -5
-3 -10 -1 -10 4 0 13 -52 86 -62 89 -5 1 -9 5 -10 10 -1 4 -18 24 -37 45 -20
21 -40 46 -46 56 -10 18 -96 132 -105 141 -3 3 -32 41 -64 85 -32 44 -70 91
-85 104 -14 13 -20 20 -12 15 8 -4 2 9 -13 29 -16 20 -31 37 -35 37 -3 0 -11
8 -16 19 -6 10 -22 36 -38 58 -20 30 -29 55 -33 104 -7 83 -29 161 -52 182
-30 27 -73 30 -108 8z m-120 -168 c-16 -37 -34 -64 -34 -50 0 11 39 87 45 87
2 0 -3 -17 -11 -37z m166 -260 c0 -3 -7 -3 -15 1 -8 3 -15 1 -15 -5 0 -6 -7
-9 -15 -5 -8 3 -15 1 -15 -5 0 -6 -5 -7 -10 -4 -15 9 -1 27 16 21 7 -3 16 -1
19 4 5 9 35 3 35 -7z m-137 -72 c-29 -26 -53 -51 -53 -54 0 -4 -13 -19 -28
-34 -16 -16 -37 -43 -47 -60 -11 -18 -23 -33 -27 -33 -4 0 11 28 35 62 47 70
156 183 166 173 3 -4 -18 -28 -46 -54z m-473 -16 c-7 -9 -15 -13 -17 -11 -7 7
7 26 19 26 6 0 6 -6 -2 -15z m1040 -255 c6 -11 8 -20 6 -20 -3 0 -10 9 -16 20
-6 11 -8 20 -6 20 3 0 10 -9 16 -20z m85 -108 c-7 -7 -25 9 -37 31 -10 20 -9
20 15 -3 14 -14 24 -26 22 -28z m105 -137 c19 -27 37 -51 42 -53 4 -2 8 -8 8
-13 0 -5 7 -17 15 -26 45 -51 66 -84 60 -93 -4 -6 -1 -9 6 -8 6 2 14 -3 16 -9
9 -25 -15 -12 -41 22 -15 19 -24 35 -21 35 4 0 0 6 -8 14 -7 8 -29 38 -48 67
-19 30 -42 62 -51 71 -10 10 -18 22 -18 27 0 5 -13 23 -30 41 -16 18 -30 36
-30 41 0 13 61 -57 100 -116z m-1390 -189 c0 -2 -8 -10 -17 -17 -16 -13 -17
-12 -4 4 13 16 21 21 21 13z m1579 -65 c12 -22 35 -52 51 -67 16 -15 27 -31
24 -36 -3 -4 0 -8 6 -8 6 0 14 -8 17 -17 8 -22 63 -90 125 -157 26 -28 45 -52
43 -54 -6 -6 -62 40 -72 59 -4 9 -27 38 -50 65 -36 42 -106 126 -131 159 -5 6
-10 15 -12 20 -2 6 -10 16 -17 23 -7 8 -11 18 -8 23 4 5 -1 9 -10 9 -9 0 -13
5 -10 10 11 18 21 11 44 -29z m-1659 -39 c0 -5 -9 -17 -20 -27 -11 -10 -17
-21 -15 -25 3 -4 -2 -11 -11 -14 -15 -6 -15 -4 0 16 9 13 19 31 23 41 5 17 23
24 23 9z m1965 -332 c3 -6 -1 -7 -9 -4 -18 7 -21 14 -7 14 6 0 13 -4 16 -10z
m57 -46 c21 -15 38 -29 38 -31 0 -6 -42 17 -69 38 -36 29 -12 23 31 -7z m120
-79 c3 0 9 -3 13 -7 4 -3 0 -5 -9 -4 -9 1 -22 8 -29 16 -10 10 -9 11 3 4 8 -5
18 -9 22 -9z M2950 4476 c0 -2 7 -7 16 -10 8 -3 12 -2 9 4 -6 10 -25 14 -25 6z M2062 5734 c-27 -18 -29 -55 -4 -77 24 -22 55 -21 75 1 22 25 21 48
-3 72 -24 24 -38 25 -68 4z m39 -35 c-9 -4 -20 -4 -25 -1 -5 3 -6 0 -3 -5 4
-6 19 -9 34 -7 16 2 21 1 13 -2 -8 -4 -18 -11 -21 -16 -3 -5 -13 0 -23 11 -16
17 -16 20 -1 35 13 12 19 13 30 3 11 -10 10 -13 -4 -18z M1790 5650 c-9 -6 -10 -10 -3 -10 6 0 15 5 18 10 8 12 4 12 -15 0z M2017 5635 c10 -13 24 -27 32 -30 11 -4 10 -1 -2 13 -9 10 -14 22
-10 27 5 4 2 5 -4 1 -7 -4 -13 -2 -13 3 0 6 -5 11 -10 11 -6 0 -3 -11 7 -25z M2120 5610 c-8 -5 -10 -10 -5 -10 6 0 17 5 25 10 8 5 11 10 5 10 -5
0 -17 -5 -25 -10z M2076 5598 c3 -4 9 -8 15 -8 5 0 9 4 9 8 0 5 -7 9 -15 9 -8 0 -12 -4
-9 -9z M2240 5579 c13 -19 43 -59 67 -89 24 -30 47 -59 51 -65 4 -5 36 -48
72 -95 36 -47 75 -99 87 -115 115 -154 140 -184 152 -185 8 0 0 17 -21 43 -19
23 -119 151 -222 284 -103 133 -192 246 -198 249 -7 4 -1 -8 12 -27z M1683 5573 c0 -9 4 -10 14 -2 7 6 13 12 13 14 0 1 -6 2 -13 2 -8 0
-14 -6 -14 -14z M2170 5506 c0 -2 8 -10 18 -17 15 -13 16 -12 3 4 -13 16 -21 21 -21
13z M1719 5483 c-13 -16 -12 -17 4 -4 16 13 21 21 13 21 -2 0 -10 -8 -17
-17z M2176 5467 c3 -10 9 -15 12 -12 3 3 0 11 -7 18 -10 9 -11 8 -5 -6z M1938 5413 c6 -3 10 -9 6 -14 -8 -14 2 -11 14 4 8 10 6 13 -11 14
-12 0 -16 -1 -9 -4z M1763 5378 c3 -10 2 -20 -4 -23 -11 -8 -41 -76 -35 -82 2 -3 16 19
30 48 18 39 22 56 14 64 -8 7 -9 5 -5 -7z M2099 5339 c13 -5 26 -7 29 -5 10 11 51 -52 55 -85 l4 -34 1 37 c3
49 -32 90 -79 94 -30 3 -32 2 -10 -7z M2191 5338 c0 -10 11 -40 27 -67 26 -49 42 -59 101 -66 12 -2 30 -13
39 -26 8 -12 23 -29 33 -37 10 -9 15 -20 12 -25 -3 -6 -1 -7 5 -3 7 4 12 1 12
-9 0 -8 7 -18 15 -21 8 -4 12 -10 9 -15 -3 -5 0 -9 6 -9 6 0 8 -6 4 -12 -4 -7
-4 -10 1 -6 8 8 48 -36 58 -64 3 -10 11 -18 17 -18 5 0 10 -7 10 -15 0 -9 7
-18 15 -21 8 -4 13 -10 10 -14 -5 -7 22 -35 34 -35 3 0 5 -3 4 -7 -1 -3 5 -9
14 -12 14 -6 14 -4 1 16 -9 13 -20 23 -26 23 -6 0 -14 3 -18 8 -4 4 -2 7 6 7
10 0 10 3 0 15 -7 8 -17 12 -23 8 -6 -3 -7 -1 -3 6 10 15 -13 43 -27 34 -6 -3
-7 -1 -3 5 7 12 -157 231 -178 237 -6 2 -32 9 -58 15 -48 13 -48 13 -48 56 0
23 -4 46 -10 49 -10 6 -15 -9 -10 -30 3 -19 -18 9 -23 30 -4 16 -5 17 -6 3z M2017 5310 c-10 -12 -15 -25 -12 -30 3 -5 1 -12 -5 -15 -8 -5 -8 -11
0 -20 7 -8 9 -18 6 -24 -8 -12 51 -71 70 -71 9 0 12 5 9 10 -3 6 -12 10 -19
10 -16 0 -58 45 -50 53 4 4 1 13 -5 21 -8 10 -9 16 -1 21 6 3 8 10 6 14 -3 4
4 18 15 29 11 12 16 22 12 22 -5 0 -16 -9 -26 -20z M1495 5290 c-10 -11 -22 -17 -26 -14 -5 3 -6 -2 -2 -11 5 -14 9 -13
31 9 14 14 24 28 21 31 -3 3 -14 -4 -24 -15z M2056 5284 c-33 -32 -9 -86 39 -86 30 0 55 24 55 53 0 25 -27 49 -55
49 -13 0 -31 -7 -39 -16z m65 -38 c-6 -7 -8 -16 -4 -19 3 -4 1 -7 -6 -7 -8 0
-10 7 -6 19 3 11 0 23 -6 27 -8 4 -9 3 -5 -4 4 -7 3 -19 -2 -29 -9 -15 -11
-14 -21 5 -9 17 -8 23 6 31 24 13 59 -5 44 -23z M1529 5256 c-47 -23 -32 -96 20 -96 15 0 36 9 46 20 38 42 -14 102
-66 76z m32 -36 c6 0 7 5 4 10 -3 6 -4 10 -1 10 3 0 10 -10 17 -22 10 -18 9
-20 -6 -14 -14 5 -15 4 -7 -7 8 -10 6 -13 -9 -13 -10 0 -19 4 -19 9 0 4 -5 5
-12 1 -6 -4 -9 -3 -6 2 3 5 8 18 13 29 5 13 9 15 12 8 3 -7 9 -13 14 -13z M1703 5238 c-2 -18 0 -20 7 -8 12 18 13 30 2 30 -4 0 -9 -10 -9 -22z M1920 5226 c0 -18 26 -85 68 -176 16 -36 35 -80 42 -97 7 -18 17 -33
22 -33 5 0 4 -10 -3 -22 -9 -17 -9 -20 3 -16 22 9 40 -45 22 -70 -7 -11 -10
-23 -6 -27 4 -5 0 -6 -9 -2 -11 4 -16 0 -15 -11 0 -9 -4 -16 -11 -15 -7 2 -10
-4 -7 -12 9 -21 -6 -41 -18 -24 -8 11 -9 11 -5 -1 5 -18 -29 -90 -43 -90 -6 0
-9 -3 -9 -7 4 -24 -3 -35 -17 -29 -13 5 -14 3 -6 -6 11 -14 -10 -43 -22 -30
-4 3 -4 -1 0 -11 4 -11 0 -19 -9 -23 -9 -3 -13 -12 -10 -21 5 -12 3 -14 -7 -8
-8 5 -11 4 -7 -2 4 -6 -1 -19 -9 -29 -9 -10 -12 -13 -8 -5 5 9 3 12 -5 7 -6
-4 -9 -11 -7 -15 3 -4 -4 -22 -15 -41 -12 -19 -17 -36 -11 -42 7 -7 120 167
256 397 l36 61 -79 175 c-44 97 -83 188 -87 203 -7 30 -24 45 -24 22z M1644 5209 c-3 -6 -2 -15 4 -21 6 -6 12 -6 17 3 6 8 4 10 -5 4 -10
-6 -12 -4 -7 8 7 19 2 23 -9 6z M2210 5209 c1 -27 62 -80 92 -79 7 1 -4 10 -25 21 -22 11 -37 23 -34
25 3 3 13 1 24 -4 10 -6 31 -15 47 -22 24 -9 27 -13 15 -22 -11 -8 -10 -9 5
-4 14 5 17 2 12 -9 -3 -10 -2 -13 5 -10 11 8 56 -44 51 -60 -2 -5 0 -7 4 -3 4
5 19 -9 32 -30 14 -20 28 -39 31 -42 3 -3 19 -23 36 -45 16 -22 32 -42 35 -45
3 -3 11 -18 18 -33 7 -15 17 -25 22 -22 6 3 10 -1 10 -10 0 -8 12 -29 28 -45
42 -46 47 -54 55 -72 3 -10 11 -18 17 -18 5 0 10 -4 10 -10 0 -5 8 -19 18 -30
9 -11 25 -29 35 -40 9 -11 17 -22 17 -25 0 -15 50 -74 55 -65 3 6 -11 33 -32
60 -21 27 -63 81 -93 121 -30 40 -65 83 -78 96 -13 12 -20 23 -16 23 6 0 -40
66 -56 80 -24 22 -60 82 -54 92 4 6 3 8 -4 4 -6 -3 -21 8 -33 26 -13 18 -45
60 -72 93 -40 48 -58 62 -94 72 -25 6 -53 19 -64 29 -15 13 -19 14 -19 3z M2154 5189 c-10 -12 -28 -25 -39 -30 -16 -6 -17 -8 -3 -8 18 -1 75
46 66 54 -3 3 -13 -4 -24 -16z M2056 5085 c8 -20 12 -41 8 -47 -4 -6 -3 -8 4 -4 6 4 32 -39 66 -109
31 -64 56 -119 56 -122 0 -3 18 -42 39 -87 21 -44 48 -101 59 -126 11 -25 50
-107 86 -183 36 -76 66 -140 66 -142 0 -2 23 -52 51 -112 170 -359 411 -874
456 -973 14 -30 32 -62 40 -72 13 -14 13 -19 0 -40 -26 -40 -95 -221 -131
-345 -65 -223 -106 -585 -91 -793 4 -52 7 -165 7 -251 l0 -156 36 -46 37 -46
447 -1 447 0 3 -27 c2 -21 9 -29 28 -31 18 -2 21 0 11 6 -7 6 -10 15 -6 22 5
9 99 11 374 10 201 -1 374 -4 384 -7 9 -2 17 -9 17 -14 0 -6 -97 -9 -251 -9
-138 1 -254 -1 -257 -4 -3 -3 117 -6 267 -6 157 0 270 -4 267 -9 -11 -17 49
-23 212 -21 112 0 168 -3 178 -11 11 -9 14 -9 14 0 0 7 5 9 10 6 6 -4 7 -12 3
-18 -4 -7 0 -6 10 2 9 7 17 9 17 3 0 -5 9 -12 21 -15 13 -4 18 -10 13 -18 -4
-8 -3 -10 4 -5 6 4 23 0 36 -9 18 -12 30 -14 44 -6 17 9 19 7 16 -17 -2 -26
-2 -26 12 -8 8 11 14 14 14 7 0 -9 16 -12 53 -10 29 1 59 -1 66 -5 7 -5 18 -3
24 3 9 9 7 11 -8 6 -16 -6 -17 -5 -5 4 18 13 63 15 56 2 -3 -5 1 -12 10 -15 9
-3 12 -2 9 5 -4 6 2 8 17 5 75 -16 100 -16 116 -4 13 11 14 11 8 0 -5 -9 -3
-12 5 -11 8 2 25 -3 39 -11 14 -8 52 -27 85 -41 33 -15 59 -32 58 -38 -2 -6 0
-10 5 -10 18 3 35 -2 29 -8 -4 -3 5 -15 20 -25 16 -10 24 -18 20 -18 -4 0 -2
-6 5 -14 7 -8 16 -12 19 -10 4 2 10 -3 13 -12 4 -11 13 -14 28 -11 19 5 20 5
5 -10 -14 -14 -13 -22 19 -84 20 -38 40 -69 47 -69 8 0 8 -3 -1 -12 -20 -20
-15 -115 8 -138 20 -20 20 -20 0 -32 -13 -9 -20 -24 -20 -45 0 -17 -5 -35 -10
-38 -6 -4 -8 -10 -5 -15 3 -5 1 -19 -4 -33 -7 -17 -6 -28 2 -37 9 -10 9 -11 0
-6 -8 4 -13 2 -13 -5 0 -7 -3 -10 -6 -6 -6 6 -54 -57 -54 -71 0 -4 -11 -16
-24 -27 -21 -18 -21 -21 -7 -33 15 -11 14 -12 -1 -6 -18 6 -51 -9 -82 -37 -11
-11 -25 -19 -32 -19 -7 0 -21 -13 -30 -30 -13 -21 -21 -26 -30 -19 -14 12
-120 -14 -144 -36 -14 -13 -19 -13 -36 0 -25 17 -136 14 -158 -4 -11 -10 -21
-9 -45 3 -39 21 -110 20 -140 -1 -20 -13 -27 -14 -44 -4 -32 20 -127 23 -155
5 -20 -13 -26 -13 -45 -1 -12 7 -48 15 -79 16 -45 2 -61 -2 -77 -18 -19 -19
-20 -19 -42 0 -18 16 -34 19 -81 16 -32 -2 -64 -9 -70 -15 -16 -16 -33 -15
-47 1 -16 20 -118 22 -147 2 -22 -14 -26 -14 -48 0 -27 18 -124 17 -147 -1
-25 -19 -42 -28 -36 -17 18 29 -120 44 -160 18 -22 -15 -27 -15 -41 -2 -24 20
-131 20 -154 0 -15 -13 -20 -13 -33 -3 -25 21 -145 20 -165 0 -16 -16 -19 -16
-41 1 -28 21 -149 23 -157 2 -5 -17 -24 -17 -40 -1 -18 18 -138 20 -153 2 -15
-18 -35 -18 -42 0 -8 20 -114 20 -144 0 -21 -13 -27 -14 -46 -1 -27 17 -143
41 -157 32 -6 -4 -29 10 -52 29 -23 20 -45 36 -50 36 -5 0 -18 9 -30 20 -12
11 -28 20 -35 20 -7 0 -13 6 -13 14 0 8 -21 36 -47 64 -48 49 -52 50 -120 43
-7 0 -13 -6 -13 -12 0 -5 5 -7 12 -3 6 4 8 3 4 -4 -3 -6 -20 -13 -36 -17 -17
-4 -30 -12 -30 -20 0 -7 -7 -18 -15 -25 -12 -10 -15 -37 -15 -121 l0 -109
-280 0 c-217 0 -280 3 -280 13 0 9 -3 8 -9 -2 -5 -7 -14 -10 -20 -7 -6 4 -11
3 -11 -3 0 -6 -7 -8 -16 -4 -15 5 -15 7 0 15 8 5 19 8 22 8 4 -1 10 4 14 10 5
8 12 7 24 -5 17 -18 23 -7 6 13 -6 6 -7 10 -4 7 4 -2 20 5 35 16 16 11 29 17
29 13 0 -4 10 2 23 13 26 24 69 48 79 45 5 -1 7 4 5 11 -1 6 4 11 11 9 8 -1
11 2 7 8 -9 14 8 13 25 -3 12 -10 12 -9 1 6 -12 15 -11 20 4 37 10 11 22 17
27 14 4 -3 7 -1 6 4 -2 5 9 24 25 41 15 17 27 38 27 47 0 8 4 12 10 9 6 -4 7
1 3 11 -4 12 -3 15 6 10 6 -4 11 -4 9 1 -1 4 7 25 17 46 13 26 21 33 27 25 5
-9 8 -7 6 7 -3 45 2 57 20 50 12 -4 14 -3 6 4 -7 8 0 40 23 109 18 53 30 105
27 116 -4 10 -2 16 3 13 5 -3 8 8 6 26 -2 27 -1 28 5 8 5 -16 8 0 10 50 1 41
3 101 5 134 l4 60 34 3 34 3 0 -222 c0 -169 3 -223 13 -226 9 -4 12 49 12 241
l0 246 -63 0 -63 0 -12 -139 c-26 -303 -113 -504 -289 -672 -87 -82 -153 -129
-260 -183 -130 -65 -124 -66 307 -66 l380 0 0 128 0 128 30 17 c16 10 32 18
35 17 3 0 19 7 36 16 17 8 32 14 33 12 1 -2 18 -24 39 -50 l37 -46 -25 -20
c-24 -19 -24 -20 -5 -37 20 -18 21 -18 43 3 l23 22 49 -35 c27 -19 54 -35 62
-35 17 0 16 -11 -2 -37 -13 -19 -13 -22 9 -37 23 -15 24 -14 37 15 9 24 17 29
33 25 12 -3 45 -9 74 -12 l54 -7 -4 -33 c-4 -31 -2 -34 24 -34 25 0 28 4 28
33 l0 32 70 0 70 0 0 -32 c0 -29 3 -33 28 -33 26 0 28 3 24 33 l-4 32 76 0 76
0 0 -32 c0 -28 3 -33 25 -33 22 0 25 5 25 33 l0 32 70 0 70 0 0 -32 c0 -30 3
-33 29 -33 26 0 29 3 27 31 l-1 30 73 2 72 2 0 -32 c0 -29 3 -33 25 -33 22 0
25 4 25 33 l0 32 72 -2 73 -1 -3 -31 c-3 -29 -1 -31 28 -31 29 0 31 2 28 31
l-3 31 73 1 72 2 0 -32 c0 -29 3 -33 25 -33 22 0 25 4 25 33 l0 32 72 -2 73
-1 -3 -31 c-3 -29 -1 -31 28 -31 29 0 31 2 28 31 l-3 30 73 2 72 2 0 -32 c0
-29 3 -33 25 -33 22 0 25 4 25 33 l0 32 72 -2 73 -2 -3 -30 c-3 -29 -1 -31 27
-31 28 0 31 3 31 33 l0 32 70 0 70 0 0 -32 c0 -28 3 -33 25 -33 22 0 25 4 25
33 l0 32 72 -2 73 -1 3 -31 c3 -25 8 -31 28 -31 20 0 24 5 24 33 l0 32 70 0
70 0 0 -32 c0 -28 4 -33 24 -33 20 0 25 6 28 31 l3 31 73 1 72 2 0 -32 c0 -29
3 -33 25 -33 22 0 25 4 25 33 0 32 3 34 48 45 26 6 56 14 68 18 17 4 24 -1 34
-25 11 -27 15 -29 34 -19 11 6 22 12 24 13 2 2 -4 15 -14 30 -16 25 -16 28 -1
36 9 5 36 25 61 44 l45 34 19 -24 c19 -24 19 -24 38 -4 17 19 17 20 -3 40
l-21 21 37 54 c34 50 38 53 69 47 19 -3 32 -1 32 5 0 6 3 17 6 26 5 12 0 16
-21 16 -24 0 -26 3 -21 23 4 12 12 46 18 75 11 48 15 52 40 52 23 0 28 4 28
25 0 21 -5 25 -27 25 -27 0 -28 2 -31 60 -3 58 -3 60 22 60 26 0 32 13 20 43
-4 12 -12 13 -35 7 -20 -6 -29 -5 -29 3 0 7 -11 34 -24 61 l-24 48 24 22 c23
19 24 23 10 41 -13 19 -15 19 -33 2 -11 -9 -22 -17 -25 -17 -3 0 -28 23 -56
51 -48 48 -50 53 -37 72 11 15 12 24 3 34 -15 19 -31 16 -46 -7 -12 -20 -13
-20 -62 5 -27 14 -56 25 -65 25 -17 0 -19 9 -6 43 8 21 6 26 -12 31 -34 9 -35
8 -42 -25 -6 -25 -11 -30 -28 -25 -12 3 -46 6 -74 6 l-53 0 0 33 c0 28 -3 32
-25 32 -22 0 -25 -4 -25 -32 l0 -33 -70 0 -70 0 0 30 c0 26 -3 30 -29 30 -25
0 -28 -3 -23 -25 4 -25 4 -25 -48 10 -76 51 -109 57 -311 53 l-179 -3 0 33 0
32 443 0 443 0 -1 45 0 45 -1342 0 -1341 0 3 42 c2 24 4 58 4 76 1 29 4 32 30
32 17 0 33 5 37 11 3 6 15 9 25 6 11 -3 16 -1 13 5 -4 6 2 8 16 3 15 -5 20 -4
16 4 -5 7 2 11 16 11 34 0 110 25 102 33 -4 4 -2 7 4 7 7 0 12 -5 12 -10 0 -7
6 -7 18 0 30 17 143 51 152 45 4 -3 10 0 12 6 2 5 22 13 46 16 23 3 42 9 42
13 0 8 74 26 97 23 7 0 11 3 8 7 -6 9 19 20 46 20 10 0 19 3 19 8 0 4 15 7 34
8 19 0 50 8 69 17 20 10 49 20 66 23 17 4 31 10 31 13 0 4 28 13 63 20 34 7
67 16 72 20 6 4 37 14 70 21 48 10 56 14 39 21 -14 5 -41 1 -75 -11 -30 -10
-81 -27 -114 -36 -33 -10 -71 -24 -84 -31 -14 -6 -28 -10 -33 -7 -5 3 -14 2
-21 -3 -7 -5 -23 -10 -37 -11 -14 -1 -26 -6 -28 -12 -2 -5 -12 -10 -23 -10
-16 0 -152 -40 -229 -68 -8 -3 -19 -6 -25 -7 -47 -11 -102 -28 -110 -34 -5 -5
-38 -14 -72 -21 -35 -7 -63 -17 -63 -23 0 -6 -3 -8 -6 -5 -6 7 -165 -40 -178
-53 -15 -14 -68 -11 -64 4 7 20 35 30 478 167 450 140 545 169 785 245 83 26
177 55 210 65 33 10 143 44 245 77 l185 59 7 149 c8 164 10 184 18 182 3 -1
17 7 33 17 15 10 48 21 73 24 l45 5 -3 351 -3 351 -29 83 c-32 91 -81 176 -96
167 -5 -3 -7 0 -4 8 7 18 -104 120 -123 113 -8 -3 -11 -1 -8 4 8 13 -64 48
-137 65 -50 12 -131 14 -388 13 l-325 -2 340 -6 c290 -5 349 -8 398 -24 32
-10 57 -20 55 -22 -3 -2 -20 1 -39 7 -107 32 -818 28 -921 -4 -172 -56 -308
-185 -451 -426 -21 -36 -35 -71 -33 -78 3 -8 1 -11 -4 -8 -5 3 -16 -10 -24
-30 -9 -20 -20 -34 -26 -30 -6 4 -7 -1 -3 -11 5 -13 3 -15 -7 -9 -8 5 -11 4
-6 -3 6 -11 -23 -82 -33 -82 -3 0 -14 17 -24 37 -15 29 -16 38 -5 45 10 8 9 9
-3 5 -17 -5 -45 45 -34 63 4 6 1 9 -5 8 -7 -2 -14 8 -16 21 -3 14 -9 30 -14
36 -6 7 -5 16 3 25 10 10 9 12 -4 8 -15 -6 -22 7 -100 178 -22 46 -24 68 -7
58 7 -4 8 -3 4 4 -4 6 -13 9 -20 6 -16 -6 -41 49 -30 67 4 7 3 10 -3 6 -11 -7
-36 40 -28 53 7 12 -6 41 -16 35 -4 -3 -25 29 -46 72 -20 43 -39 82 -41 87 -3
5 1 5 8 1 9 -6 9 -3 1 14 -7 11 -16 21 -21 21 -5 0 -7 8 -3 18 3 9 2 14 -2 9
-10 -8 -44 59 -48 95 -1 13 -10 31 -20 40 -11 9 -16 21 -13 27 3 5 -5 23 -20
40 -14 17 -22 36 -18 42 4 7 3 9 -3 6 -7 -4 -18 17 -29 53 -10 33 -21 60 -24
60 -4 0 -18 27 -31 60 -13 33 -27 60 -31 60 -5 0 -8 9 -8 19 0 11 -7 26 -15
35 -8 8 -15 24 -15 36 0 14 -4 19 -12 14 -8 -5 -9 -2 -5 9 3 10 2 17 -4 17 -6
0 -9 6 -7 12 3 7 -8 34 -24 61 -15 26 -28 50 -28 52 0 3 -57 125 -136 290 -16
33 -27 64 -26 68 2 8 -22 37 -32 37 -3 0 2 -16 10 -35z m2316 -1297 c53 -1 94
-6 91 -11 -3 -5 4 -6 16 -2 12 4 21 2 21 -4 0 -6 5 -11 11 -11 5 0 8 4 4 9 -3
5 8 3 25 -5 18 -10 27 -20 23 -27 -4 -7 1 -6 10 2 12 9 17 10 17 2 0 -7 5 -9
10 -6 9 6 14 -8 11 -28 -1 -5 4 -5 10 -1 7 4 18 -1 26 -11 7 -11 13 -16 13
-12 0 4 16 -11 35 -32 20 -22 34 -45 33 -53 -2 -7 2 -12 9 -11 6 1 17 -5 25
-14 11 -14 11 -16 -2 -9 -8 4 -6 0 4 -8 11 -9 16 -16 10 -16 -5 0 -5 -3 1 -8
12 -8 45 -67 45 -79 0 -4 -5 -1 -10 7 -6 9 -10 10 -10 3 0 -6 4 -14 10 -18 5
-3 6 -13 3 -22 -5 -12 -3 -14 7 -8 10 6 12 4 7 -7 -3 -9 -3 -19 1 -22 3 -4 8
-16 10 -29 7 -38 7 -565 0 -561 -4 3 -6 -15 -5 -38 2 -37 -1 -43 -17 -40 -11
2 -15 -1 -11 -7 3 -6 0 -11 -9 -11 -8 0 -20 -2 -28 -3 -7 -2 -10 -2 -7 0 3 2
3 23 -2 46 -4 23 -9 98 -10 167 0 69 -5 163 -9 210 -5 57 -7 1 -5 -172 3 -189
1 -259 -8 -266 -7 -6 -85 -18 -175 -26 -90 -9 -195 -21 -235 -26 -40 -5 -91
-10 -115 -10 l-43 0 3 264 c2 146 0 257 -4 246 -4 -10 -10 -128 -14 -262 -6
-210 -5 -245 8 -256 12 -10 58 -8 234 8 121 11 236 22 257 25 21 2 36 1 33 -3
-3 -4 0 -14 5 -22 9 -13 10 -13 8 0 -3 29 1 40 15 40 11 0 11 -6 -2 -34 -9
-19 -18 -33 -21 -31 -3 2 -5 -59 -3 -134 l3 -138 -93 -27 c-51 -15 -128 -39
-170 -52 -42 -14 -86 -26 -97 -27 -12 -1 -21 -5 -21 -9 0 -4 -6 -8 -14 -8 -7
0 -42 -10 -77 -21 -35 -12 -71 -22 -79 -24 -8 -1 -22 -5 -30 -8 -99 -36 -182
-58 -174 -46 3 5 16 9 28 9 13 0 30 8 37 18 11 14 11 15 -1 5 -8 -7 -21 -13
-29 -13 -11 0 -10 5 6 23 20 22 40 67 29 67 -3 0 -13 -15 -22 -32 -22 -44 -49
-66 -95 -80 -21 -6 -37 -14 -35 -17 2 -3 -8 -6 -22 -7 -15 0 -170 -44 -345
-97 -295 -90 -325 -97 -403 -97 -144 0 -194 40 -194 154 0 33 3 56 7 52 4 -4
6 -27 4 -53 -2 -41 1 -49 33 -79 64 -60 179 -59 381 4 72 22 200 61 285 87
243 74 315 99 316 113 3 25 5 27 14 12 8 -13 10 -12 10 3 0 23 -16 22 -33 -4
-20 -28 -125 -60 -149 -45 -16 9 -14 12 20 24 20 7 45 14 54 15 9 2 27 12 38
22 22 20 49 62 33 52 -4 -3 -7 36 -6 86 2 51 3 97 3 104 0 7 7 10 16 6 13 -5
13 -7 2 -14 -8 -5 -2 -8 17 -6 29 2 30 0 36 -48 5 -44 6 -46 9 -15 l3 35 7
-35 7 -35 2 41 c1 28 -5 50 -18 65 -18 22 -26 24 -98 22 -43 -2 -112 -8 -153
-13 -75 -11 -482 -57 -510 -59 -45 -2 -101 -10 -133 -19 -20 -6 -38 -8 -41 -5
-2 3 -24 -9 -49 -25 -41 -29 -45 -30 -62 -14 -15 14 -17 14 -7 1 9 -13 9 -23
-4 -48 -8 -17 -18 -31 -20 -31 -3 0 -3 4 1 9 3 5 2 12 -3 15 -4 2 -8 -7 -9
-22 -1 -15 -7 -73 -14 -130 -15 -126 -5 -169 47 -208 30 -23 47 -28 110 -30
112 -5 120 -17 26 -42 -92 -25 -96 -26 -86 -10 4 7 3 8 -5 4 -6 -4 -9 -11 -6
-16 2 -4 -5 -10 -18 -13 -91 -23 -112 -30 -119 -40 -18 -30 -23 23 -23 251 0
255 19 497 38 485 6 -4 7 -1 3 6 -10 16 2 83 14 76 4 -3 6 4 3 15 -6 24 5 73
15 66 4 -2 8 7 8 20 1 13 -2 21 -8 18 -5 -3 -3 7 5 23 9 16 18 45 22 66 4 22
11 34 18 30 5 -3 7 -1 4 5 -9 13 2 44 13 37 5 -3 6 4 3 14 -3 10 1 30 8 42 7
13 14 33 16 44 2 11 10 23 18 28 9 5 13 17 9 35 -4 18 1 34 13 47 10 11 18 27
18 35 0 8 5 14 11 13 6 -1 12 9 12 23 0 13 7 33 16 43 9 9 16 23 16 30 0 7 5
9 12 5 8 -5 9 -2 5 9 -3 10 -2 17 3 17 5 0 6 7 3 17 -4 11 -3 14 5 9 7 -4 14
4 18 21 4 15 12 35 18 43 7 8 20 34 31 57 10 24 22 40 28 36 6 -4 8 0 4 10 -3
9 -2 17 2 19 4 2 26 28 48 58 58 77 94 115 105 112 5 -1 7 2 4 7 -4 5 7 19 23
30 31 23 46 27 36 11 -3 -6 1 -7 10 -3 11 4 13 8 5 13 -7 4 -2 13 15 24 14 9
31 14 37 10 7 -5 8 -3 3 6 -6 10 -4 12 9 7 9 -4 15 -3 12 2 -7 11 56 42 98 48
17 2 38 6 46 9 8 3 143 8 300 11 157 2 287 7 289 9 3 2 12 2 20 0 9 -3 60 -6
113 -8z m319 -95 c13 -16 12 -17 -3 -4 -10 7 -18 15 -18 17 0 8 8 3 21 -13z
m-821 -1343 c0 -94 -17 -143 -57 -163 -48 -25 -655 -214 -711 -222 -55 -7
-169 1 -189 13 -8 5 -9 41 -4 124 6 100 11 121 32 152 13 20 30 34 37 31 7 -3
10 -1 7 5 -9 14 33 32 58 25 16 -5 18 -4 8 3 -19 13 0 17 257 47 117 14 239
23 270 21 47 -4 51 -3 22 4 -27 7 -18 8 40 5 56 -3 66 -1 40 5 -26 6 -14 7 45
5 61 -3 72 -2 45 5 -27 7 -21 8 30 4 46 -3 61 -2 50 6 -13 8 -13 10 3 10 15 0
17 -10 17 -80z m-15 -158 l-28 -27 23 33 c12 18 25 31 28 27 3 -3 -7 -18 -23
-33z m-958 -54 c-2 -13 -4 -3 -4 22 0 25 2 35 4 23 2 -13 2 -33 0 -45z m835
-16 c13 -5 8 -11 -25 -24 -72 -28 -180 -60 -221 -65 -22 -2 -48 -9 -57 -14
-10 -5 -27 -9 -38 -9 -12 0 -21 -6 -21 -12 0 -9 -4 -8 -10 2 -5 8 -10 10 -10
4 0 -5 -23 -18 -51 -28 -40 -15 -53 -16 -62 -6 -9 10 -7 11 11 5 14 -4 22 -2
22 5 0 6 4 9 8 6 5 -3 25 3 44 14 19 10 63 24 96 30 34 7 59 16 57 20 -5 8 62
25 79 21 5 -1 12 2 15 6 6 9 118 50 136 51 6 0 18 -2 27 -6z m-502 -168 c0 -2
-17 -8 -37 -13 -27 -8 -40 -7 -48 1 -7 8 -5 9 7 5 10 -4 23 0 30 7 10 11 48
11 48 0z m-103 -20 c-4 -4 -27 -8 -52 -9 -27 -1 -40 2 -33 7 15 9 94 11 85 2z
m-283 -436 c-3 -4 0 -8 6 -8 6 0 8 -5 4 -11 -4 -8 -9 -7 -15 2 -5 8 -9 10 -9
6 0 -5 -5 -5 -10 -2 -14 8 -5 22 14 22 8 0 13 -4 10 -9z m1328 2 l1279 0 -3
-22 -3 -23 -420 -3 c-259 -1 -423 -6 -429 -12 -14 -14 -856 -14 -856 0 0 7
-151 10 -434 10 -291 0 -437 3 -441 10 -4 6 -1 18 7 27 9 12 9 15 1 9 -8 -4
-13 -2 -13 4 0 7 7 9 16 6 9 -3 592 -6 1296 -6z m-1955 -382 c-2 -13 -4 -5 -4
17 -1 22 1 32 4 23 2 -10 2 -28 0 -40z m-10 -115 c-3 -10 -5 -4 -5 12 0 17 2
24 5 18 2 -7 2 -21 0 -30z m-10 -80 c-3 -10 -5 -4 -5 12 0 17 2 24 5 18 2 -7
2 -21 0 -30z m-10 -55 c-3 -8 -6 -5 -6 6 -1 11 2 17 5 13 3 -3 4 -12 1 -19z
m-10 -40 c-3 -8 -6 -5 -6 6 -1 11 2 17 5 13 3 -3 4 -12 1 -19z m-28 -105 c-79
-241 -196 -386 -385 -482 -82 -41 -92 -39 -20 4 32 19 61 35 65 35 3 0 22 15
41 33 19 17 54 49 78 70 23 20 39 37 35 37 -5 0 -1 5 9 10 42 25 142 207 175
320 10 33 19 55 21 50 2 -5 -6 -40 -19 -77z M3770 3680 c-69 -4 -139 -12 -156 -17 -55 -19 -95 -44 -88 -55 4 -7
3 -8 -5 -4 -17 11 -83 -33 -77 -51 3 -8 1 -11 -4 -8 -6 4 -24 -5 -41 -19 -17
-14 -29 -26 -26 -26 2 0 -16 -21 -40 -47 -23 -26 -43 -50 -43 -54 0 -3 -13
-23 -29 -43 -16 -20 -44 -66 -62 -101 -18 -35 -37 -62 -42 -58 -6 3 -7 2 -4
-3 3 -6 1 -16 -4 -24 -8 -13 -10 -13 -19 0 -5 8 -10 11 -10 6 0 -5 8 -18 18
-29 16 -19 16 -20 0 -14 -12 4 -15 2 -12 -8 3 -8 -6 -40 -19 -72 -14 -32 -33
-83 -42 -113 -9 -30 -29 -89 -45 -130 -34 -87 -93 -306 -88 -322 3 -7 19 40
37 103 121 420 254 703 410 872 72 77 268 123 434 103 l57 -7 0 -476 c0 -429
2 -475 16 -469 9 3 29 6 45 6 l29 0 -2 93 c-1 56 -3 71 -5 37 -5 -95 -12 -119
-31 -115 -9 2 -20 4 -25 4 -13 2 -8 613 6 630 10 12 9 14 -3 9 -13 -5 -14 12
-10 124 3 79 1 133 -5 140 -7 8 -5 9 6 5 9 -3 16 0 16 8 0 8 -7 11 -15 7 -11
-4 -13 -1 -7 8 6 9 4 11 -5 5 -9 -6 -12 -4 -8 6 9 23 -228 19 -310 -5 -34 -10
-65 -23 -68 -27 -3 -5 -10 -9 -16 -9 -17 0 20 32 72 62 64 37 107 46 260 53
87 4 137 10 143 18 5 7 5 -3 2 -23 -4 -19 -7 -37 -7 -40 -2 -100 6 -408 10
-390 5 21 7 17 13 -20 4 -25 6 74 5 220 l-1 265 -40 1 c-22 0 -96 -2 -165 -6z M4233 3683 l-51 -4 -4 -52 c-4 -49 -1 -877 4 -942 1 -16 4 -1 7 35
l6 65 17 -36 c10 -20 24 -42 33 -49 8 -7 12 -16 9 -21 -3 -5 5 -9 17 -9 21 0
21 1 -6 38 -16 20 -38 48 -51 62 l-23 25 8 382 c4 211 11 386 14 389 12 12
140 -26 178 -52 44 -30 81 -82 105 -150 14 -41 18 -100 24 -364 4 -173 6 -316
6 -317 -1 -1 -71 -9 -156 -19 -85 -9 -162 -20 -170 -26 -12 -7 -11 -8 5 -4 11
2 85 10 165 17 95 8 151 17 162 26 9 8 49 17 92 20 l76 6 -2 181 -2 181 -3
-172 c-3 -128 -7 -173 -16 -174 -6 0 -38 -2 -71 -4 l-58 -3 4 100 c2 55 1 92
-2 83 -3 -9 -6 73 -7 182 -2 205 -4 246 -17 275 -5 10 -9 29 -10 42 0 13 -5
22 -10 18 -5 -3 -6 2 -3 12 4 10 3 15 -3 11 -6 -3 -10 -2 -10 3 0 14 -91 107
-101 104 -5 -1 -12 5 -15 13 -4 8 -14 15 -24 15 -10 0 -33 6 -51 13 -19 8 -47
12 -64 11 -28 -3 -30 -1 -30 29 l0 32 102 5 c55 3 99 2 97 -1 -2 -3 12 -10 30
-16 94 -29 184 -123 224 -235 9 -26 20 -48 23 -48 3 0 5 -12 3 -27 -4 -28 -4
-28 5 -3 4 14 5 29 0 34 -4 5 -5 14 -2 22 8 21 -53 135 -99 185 -41 45 -85 76
-100 71 -5 -1 -8 2 -8 8 0 22 -145 41 -247 33z M4370 3586 c0 -2 7 -7 16 -10 8 -3 12 -2 9 4 -6 10 -25 14 -25 6z M3631 3528 c7 -13 23 -37 36 -54 12 -17 20 -34 15 -39 -4 -5 -2 -5 4
-2 12 7 51 -41 46 -56 -1 -5 2 -6 7 -3 5 3 14 -8 21 -24 7 -17 16 -30 21 -30
5 0 6 -8 3 -17 -4 -14 -3 -15 4 -5 7 10 14 5 31 -23 12 -21 24 -35 28 -32 8 9
2 18 -195 285 -9 12 -20 22 -25 22 -4 0 -2 -10 4 -22z M3275 3529 c-4 -6 -4 -13 -1 -16 3 -4 6 -1 6 6 0 7 5 9 12 5 7 -4 8
-3 4 4 -9 15 -13 15 -21 1z M3435 3460 c-3 -6 1 -7 9 -4 18 7 21 14 7 14 -6 0 -13 -4 -16 -10z M3690 3413 c0 -6 8 -17 18 -24 16 -13 16 -13 2 6 -8 11 -16 22 -17
24 -2 2 -3 0 -3 -6z M3801 3364 c0 -11 3 -14 6 -6 3 7 2 16 -1 19 -3 4 -6 -2 -5 -13z M2991 3024 c0 -11 3 -14 6 -6 3 7 2 16 -1 19 -3 4 -6 -2 -5 -13z M3075 3029 c-4 -6 -5 -12 -2 -15 2 -3 7 2 10 11 7 17 1 20 -8 4z M3056 2997 c3 -10 9 -15 12 -12 3 3 0 11 -7 18 -10 9 -11 8 -5 -6z M3040 2981 c0 -6 4 -13 10 -16 6 -3 7 1 4 9 -7 18 -14 21 -14 7z M3992 2778 c-2 -143 -5 -188 -14 -188 -7 0 -251 -29 -541 -66 -291
-36 -531 -64 -533 -61 -7 6 43 179 101 352 23 72 41 132 40 133 -7 7 -33 -55
-41 -92 l-7 -39 -14 24 c-13 22 -12 11 4 -28 4 -10 2 -14 -4 -10 -5 3 -10 1
-10 -6 -1 -17 -10 -58 -18 -82 -21 -62 -28 -74 -39 -68 -6 4 -5 -1 3 -11 12
-14 12 -19 2 -25 -7 -5 -12 -11 -12 -15 4 -30 0 -46 -11 -40 -8 5 -7 0 2 -11
11 -14 12 -19 3 -22 -7 -3 -13 -20 -13 -38 0 -26 5 -34 23 -38 23 -6 75 -2
109 9 13 4 18 2 14 -5 -4 -6 8 -5 32 3 21 8 76 17 123 21 46 4 87 9 90 11 10
6 302 34 307 29 3 -2 13 0 23 5 10 6 37 12 61 15 24 2 81 10 128 17 47 8 104
13 127 13 23 0 39 4 36 9 -4 5 3 7 15 4 12 -4 20 -2 17 2 -3 5 -1 11 5 15 11
7 12 190 0 300 -5 53 -7 24 -8 -117z M2947 2863 c3 -7 6 -13 8 -13 2 0 5 6 8 13 3 8 -1 14 -8 14 -7 0 -11
-6 -8 -14z M3042 2788 c3 -7 24 -70 48 -140 23 -71 46 -128 50 -128 4 0 10 7 14
15 3 8 1 15 -4 15 -6 0 -15 20 -22 45 -7 25 -16 45 -21 45 -4 0 -5 10 -2 21 5
15 4 19 -4 15 -7 -5 -11 2 -11 16 0 25 -35 108 -46 108 -3 0 -4 -6 -2 -12z M3091 2735 c0 -5 3 -16 8 -23 7 -11 9 -10 14 3 4 9 3 14 -2 10 -5 -3
-12 1 -14 7 -3 7 -6 9 -6 3z M3528 2623 c7 -3 16 -2 19 1 4 3 -2 6 -13 5 -11 0 -14 -3 -6 -6z M3065 2589 c-4 -6 -5 -12 -2 -15 2 -3 7 2 10 11 7 17 1 20 -8 4z M3765 2590 l-40 -7 35 -1 c19 0 53 3 75 7 l40 9 -35 -1 c-19 0 -53
-3 -75 -7z M4235 2591 c-3 -5 -2 -12 3 -15 5 -3 9 1 9 9 0 17 -3 19 -12 6z M3610 2570 c-41 -6 -42 -7 -10 -8 19 0 55 3 80 7 40 8 41 8 10 8 -19
0 -55 -3 -80 -7z M3450 2550 c-41 -6 -42 -7 -10 -8 19 0 55 3 80 7 40 8 41 8 10 8 -19
0 -55 -3 -80 -7z M3290 2530 c-41 -6 -42 -7 -10 -8 19 0 55 3 80 7 40 8 41 8 10 8 -19
0 -55 -3 -80 -7z M3160 2512 c0 -4 18 -6 40 -4 22 2 40 6 40 8 0 2 -18 4 -40 4 -22 0
-40 -3 -40 -8z M3016 2499 c-32 -5 -61 -11 -64 -14 -9 -9 49 -4 128 9 87 16 35 19
-64 5z M4575 2310 c-13 -6 -15 -9 -5 -9 8 0 22 4 30 9 18 12 2 12 -25 0z M3891 2197 c-13 -21 -12 -21 5 -5 10 10 16 20 13 22 -3 3 -11 -5 -18
-17z M3493 2373 c9 -2 25 -2 35 0 9 3 1 5 -18 5 -19 0 -27 -2 -17 -5z M3413 2363 c9 -2 25 -2 35 0 9 3 1 5 -18 5 -19 0 -27 -2 -17 -5z M3323 2353 c9 -2 25 -2 35 0 9 3 1 5 -18 5 -19 0 -27 -2 -17 -5z M3248 2343 c12 -2 30 -2 40 0 9 3 -1 5 -23 4 -22 0 -30 -2 -17 -4z M3153 2333 c9 -2 25 -2 35 0 9 3 1 5 -18 5 -19 0 -27 -2 -17 -5z M3088 2323 c6 -2 18 -2 25 0 6 3 1 5 -13 5 -14 0 -19 -2 -12 -5z M3195 2300 c4 -14 22 -82 39 -152 28 -115 32 -125 43 -103 6 14 7 23
3 20 -11 -7 -21 24 -23 74 -1 22 -4 36 -7 30 -4 -5 -12 22 -19 60 -7 38 -20
76 -28 83 -14 11 -15 10 -8 -12z M3241 2264 c0 -11 3 -14 6 -6 3 7 2 16 -1 19 -3 4 -6 -2 -5 -13z M3800 2220 c-8 -5 -10 -10 -5 -10 6 0 17 5 25 10 8 5 11 10 5 10 -5
0 -17 -5 -25 -10z M3500 2136 c0 -2 7 -7 16 -10 8 -3 12 -2 9 4 -6 10 -25 14 -25 6z M3518 2053 c7 -3 16 -2 19 1 4 3 -2 6 -13 5 -11 0 -14 -3 -6 -6z M2690 5046 c0 -4 37 -55 83 -113 45 -58 81 -107 80 -109 -1 -2 11
-17 27 -34 55 -59 120 -152 113 -163 -3 -5 -1 -7 4 -4 14 9 47 -29 37 -44 -4
-7 -3 -10 4 -6 14 9 115 -120 108 -138 -3 -9 0 -12 8 -9 7 3 31 -18 54 -50
l42 -55 -22 -15 c-23 -16 -43 -12 -32 6 4 7 2 8 -4 4 -7 -4 -12 -1 -12 6 -1
21 -56 82 -68 74 -7 -4 0 -18 18 -38 16 -17 26 -36 23 -41 -3 -6 -1 -7 4 -4
10 6 28 -19 25 -35 -2 -9 31 -2 57 12 14 7 21 7 21 0 0 -5 -4 -10 -10 -10 -5
0 -10 -5 -10 -11 0 -5 4 -8 9 -5 14 9 19 -16 9 -44 -5 -13 -6 -21 -2 -17 5 4
14 -3 21 -15 15 -28 16 -15 4 68 -9 61 -11 63 -286 415 -285 365 -305 389
-305 375z M1481 5021 c-10 -18 -6 -31 11 -31 5 0 6 5 3 10 -3 6 1 13 9 16 9 3
13 10 10 15 -9 14 -23 10 -33 -10z M1433 4942 c-6 -4 -37 -57 -68 -117 -31 -61 -60 -109 -64 -108 -5 1
-8 -5 -7 -15 0 -10 -5 -16 -13 -14 -12 3 -12 0 -1 -12 11 -14 7 -20 -12 -18
-10 2 -18 -27 -9 -33 5 -2 16 6 25 20 9 14 13 25 9 25 -5 1 5 8 20 16 15 8 25
19 22 24 -3 5 3 24 14 44 29 51 58 110 61 121 2 6 11 16 21 23 10 7 17 21 16
32 -1 11 -1 20 -2 20 0 0 -5 -4 -12 -8z M2120 4811 c0 -5 37 -85 81 -177 45 -93 105 -218 134 -279 29 -60
108 -222 175 -360 102 -210 176 -367 310 -660 10 -22 41 -97 70 -165 48 -117
83 -180 65 -120 -4 14 -7 34 -8 45 -1 10 -9 27 -19 37 -10 10 -18 28 -18 41 0
13 -4 27 -9 32 -4 6 -17 33 -27 60 -10 28 -20 52 -23 55 -11 10 -51 101 -51
116 0 9 -5 12 -11 8 -8 -4 -9 1 -4 16 4 14 3 20 -3 16 -5 -3 -13 4 -17 17 -4
12 -9 27 -10 32 -14 42 -89 201 -97 206 -6 4 -7 12 -3 19 5 8 4 11 -3 6 -6 -3
-13 6 -17 24 -4 16 -11 30 -17 30 -6 0 -8 9 -5 20 3 11 1 18 -4 14 -5 -3 -9 4
-9 15 0 10 -5 21 -11 23 -5 2 -11 11 -12 20 -2 9 -8 22 -13 29 -12 16 -45 86
-48 103 -1 6 -15 36 -31 66 -16 30 -29 57 -30 60 -1 12 -61 125 -67 128 -5 2
-8 10 -8 18 0 18 -29 77 -42 85 -5 3 -9 9 -9 13 2 23 -13 65 -22 59 -6 -4 -8
0 -4 11 4 10 3 15 -3 11 -6 -3 -10 3 -10 14 0 10 -5 21 -11 23 -6 2 -13 15
-14 28 -4 40 -5 41 -14 36 -5 -3 -12 4 -16 17 -4 12 -8 24 -10 27 -1 3 -6 20
-10 38 -6 24 -10 30 -16 20 -7 -10 -9 -10 -10 0 -2 19 -4 24 -22 66 -9 21 -17
42 -17 46 0 4 -7 10 -15 14 -8 3 -15 1 -15 -3z M1483 4678 c-15 -21 -164 -326 -167 -341 -1 -8 -7 -21 -13 -28 -18
-23 -144 -277 -148 -300 -3 -13 -9 -25 -13 -28 -10 -7 -75 -131 -68 -131 7 0
82 133 120 213 20 43 40 76 44 73 4 -2 8 10 9 26 1 17 7 36 13 43 5 6 7 15 3
18 -3 4 -2 7 3 7 6 0 25 30 43 68 36 74 38 76 74 148 31 60 51 106 49 117 -1
4 3 7 8 7 5 0 10 7 10 15 0 8 4 15 10 15 5 0 12 11 16 25 3 14 9 25 13 25 4 0
7 9 8 20 2 23 -1 25 -14 8z M1442 4667 c-10 -11 -196 -388 -387 -782 -40 -82 -167 -342 -283
-577 -116 -235 -213 -436 -216 -445 -4 -12 -34 -27 -89 -45 -105 -34 -197 -74
-197 -87 0 -10 19 -9 37 2 7 5 18 5 25 1 7 -5 8 -3 3 6 -6 10 -1 12 19 8 20
-4 24 -2 16 7 -8 10 1 16 40 25 27 7 52 16 55 20 3 5 17 7 31 5 15 -1 28 3 31
11 6 17 33 18 34 2 2 -38 6 -59 12 -65 14 -13 16 3 6 46 -5 25 -6 47 -2 50 16
12 33 51 27 64 -3 8 2 21 10 30 9 9 16 23 16 32 0 9 7 23 15 31 8 9 15 25 15
37 0 18 2 20 11 7 9 -13 10 -12 5 3 -6 20 23 89 36 81 4 -3 5 1 3 8 -3 8 3 23
13 34 10 10 17 25 14 32 -2 7 2 11 9 10 8 -2 14 7 14 22 1 14 7 34 14 45 11
18 12 18 6 -7 -7 -37 0 -36 14 2 6 18 6 28 1 25 -16 -10 -11 7 16 55 14 25 23
37 20 28 -3 -10 -1 -20 4 -23 4 -3 7 7 5 22 -2 20 32 101 117 273 67 135 206
418 310 629 104 211 187 385 185 387 -2 3 -9 -1 -15 -9z M2049 4653 c-13 -16 -12 -17 4 -4 9 7 17 15 17 17 0 8 -8 3 -21 -13z M1925 4631 c-3 -5 -2 -12 3 -15 5 -3 9 1 9 9 0 17 -3 19 -12 6z M2923 4632 c-8 -5 -8 -12 3 -27 8 -11 18 -18 22 -16 4 2 12 -6 18
-18 6 -11 14 -18 19 -13 4 4 5 -1 2 -11 -4 -10 -3 -16 2 -13 5 3 14 -8 21 -24
7 -16 16 -27 20 -25 5 3 11 -3 15 -12 8 -25 55 -77 62 -69 6 6 -16 44 -42 70
-9 9 -13 16 -9 16 5 0 -13 22 -40 49 -31 31 -46 54 -41 62 5 7 4 10 -2 6 -6
-4 -13 2 -16 13 -5 21 -15 24 -34 12z M1225 4610 c-3 -6 1 -7 9 -4 18 7 21 14 7 14 -6 0 -13 -4 -16 -10z M1259 4484 c-76 -121 -84 -136 -121 -205 -77 -143 -126 -232 -183
-334 -19 -33 -55 -100 -81 -150 -25 -49 -50 -95 -55 -101 -5 -6 -20 -31 -32
-55 -27 -51 -53 -58 -106 -28 -18 11 -34 19 -35 17 -1 -2 -15 -28 -31 -58 -15
-30 -114 -210 -218 -400 -105 -190 -206 -375 -226 -412 -31 -58 -40 -68 -63
-68 -16 0 -42 -13 -63 -31 -32 -28 -35 -36 -35 -86 0 -47 4 -59 30 -85 l30
-30 0 -266 c0 -256 -1 -267 -21 -288 -29 -30 -39 -84 -24 -120 17 -41 55 -72
90 -76 17 -2 32 -5 35 -8 3 -3 47 -25 99 -50 52 -25 149 -85 215 -133 147
-108 307 -189 431 -218 74 -17 112 -20 215 -17 108 4 138 9 220 37 228 77 411
207 782 553 125 116 227 213 225 214 -1 1 -58 -6 -127 -16 -69 -10 -165 -24
-213 -30 l-89 -12 -29 -47 c-48 -79 -37 -74 -188 -68 -121 5 -251 28 -311 54
-8 3 -21 5 -29 4 -8 -1 -10 2 -6 9 5 9 1 10 -15 5 -15 -5 -20 -4 -16 4 4 7 1
9 -8 5 -38 -15 -273 115 -402 222 -93 77 -132 91 -218 74 -63 -12 -154 -53
-196 -89 -18 -14 -21 -21 -10 -22 8 -1 28 -3 45 -5 20 -2 25 0 16 5 -8 5 -21
7 -29 3 -11 -4 -13 -1 -8 7 5 7 16 11 26 8 13 -3 17 0 13 10 -3 7 -2 13 3 12
5 -1 30 8 57 20 26 12 52 19 59 15 6 -4 8 -3 5 3 -9 14 44 24 86 17 68 -12
148 -68 133 -93 -4 -5 -1 -13 5 -17 7 -4 9 -3 5 4 -3 6 -2 13 4 17 5 3 10 2
10 -3 0 -5 13 -15 30 -22 16 -7 27 -16 24 -21 -3 -5 -2 -8 3 -7 15 4 73 -39
65 -48 -4 -5 -3 -6 2 -2 11 9 87 -32 80 -43 -3 -5 2 -6 10 -3 9 3 16 2 16 -3
0 -5 10 -9 21 -10 12 -1 29 -8 38 -16 9 -8 33 -20 53 -28 20 -7 35 -16 32 -21
-3 -4 1 -5 9 -2 7 2 27 -1 43 -7 16 -7 35 -11 42 -10 6 1 12 -3 12 -9 0 -6 4
-9 9 -6 4 3 23 1 42 -4 72 -21 159 -32 271 -35 113 -2 157 -13 142 -36 -3 -5
2 -12 10 -15 9 -3 16 -10 16 -16 0 -5 -6 -6 -12 -2 -8 4 -10 3 -5 -2 5 -5 13
-10 18 -10 5 -1 13 -2 17 -3 5 0 9 -7 9 -13 1 -23 8 -43 18 -50 6 -5 3 -8 -6
-8 -9 0 -23 -8 -30 -17 -11 -15 -11 -16 1 -5 8 6 19 12 24 12 6 0 0 -7 -12
-16 -12 -8 -27 -12 -32 -9 -6 4 -9 2 -8 -2 5 -14 -60 -75 -72 -68 -5 3 -10 1
-10 -5 0 -6 -4 -8 -10 -5 -5 3 -7 0 -4 -8 3 -8 0 -18 -7 -23 -8 -5 -10 -3 -4
7 4 8 -4 1 -19 -16 -14 -16 -25 -26 -26 -22 0 5 -14 -3 -31 -17 -17 -14 -35
-24 -40 -20 -5 3 -8 0 -7 -8 2 -7 -3 -12 -10 -10 -8 1 -11 -2 -6 -9 4 -8 -1
-9 -17 -5 -13 3 -18 3 -11 0 16 -8 5 -25 -12 -18 -7 3 -16 -3 -20 -13 -6 -15
-8 -15 -16 -3 -8 13 -10 12 -10 -2 0 -10 -7 -18 -15 -18 -8 0 -15 -4 -15 -9 0
-6 -9 -8 -20 -6 -13 3 -18 0 -14 -7 5 -8 1 -9 -10 -5 -9 4 -15 3 -12 -2 5 -8
-121 -63 -154 -68 -8 -1 -41 -8 -74 -16 -38 -10 -92 -14 -155 -11 -53 2 -106
4 -119 4 -14 0 -20 4 -16 11 4 8 -1 9 -17 4 -22 -7 -23 -7 -9 10 14 17 14 17
-9 6 -19 -11 -31 -10 -70 5 -25 9 -61 26 -79 36 -18 10 -37 16 -43 13 -5 -3
-6 0 -3 8 3 8 -3 20 -13 28 -16 13 -17 12 -4 -3 8 -11 9 -18 3 -18 -6 0 -18
10 -28 23 -15 19 -16 20 -10 2 6 -20 6 -20 -9 -1 -8 11 -15 16 -15 12 0 -5 -9
2 -20 15 -10 13 -19 18 -20 12 0 -7 5 -13 12 -13 6 0 8 -3 5 -6 -10 -10 -38
17 -30 29 4 6 0 8 -10 4 -10 -3 -17 -4 -17 -1 0 2 10 8 22 13 l22 8 -22 5
c-12 4 -20 2 -16 -3 3 -5 -2 -9 -11 -9 -10 0 -13 5 -9 12 4 7 3 8 -4 4 -15 -9
-56 29 -48 43 4 5 1 13 -5 17 -7 4 -9 3 -5 -4 3 -6 2 -13 -3 -16 -5 -4 -27 10
-48 31 -21 20 -33 34 -28 30 6 -3 11 3 11 14 0 19 -1 19 -16 -1 -19 -25 -35
-15 -69 43 -38 63 -39 137 -2 253 38 122 89 216 119 220 13 3 20 -1 18 -9 -1
-6 -1 -8 2 -4 2 4 11 2 20 -5 15 -11 15 -11 4 4 -9 11 -10 18 -2 23 6 3 8 11
5 16 -9 13 -25 11 -21 -3 1 -7 1 -9 -2 -5 -2 4 -11 2 -20 -5 -10 -6 1 7 23 31
22 23 55 51 73 63 18 11 40 34 49 51 9 18 108 183 221 367 113 184 255 418
317 520 107 178 351 578 593 973 73 121 111 192 105 198 -6 6 -23 -13 -46 -52
-20 -34 -37 -65 -37 -69 0 -4 -8 -14 -17 -21 -17 -13 -17 -13 -3 6 14 19 14
19 -2 6 -10 -7 -15 -17 -12 -22 3 -5 -1 -19 -8 -31 -7 -13 -11 -27 -10 -32 2
-5 -5 -3 -14 5 -16 13 -16 12 -5 -8 8 -15 8 -23 1 -23 -6 0 -15 -12 -20 -26
-8 -20 -13 -24 -23 -15 -10 8 -14 7 -14 -4 0 -8 4 -12 9 -9 14 9 9 -6 -17 -43
-13 -20 -21 -41 -18 -47 4 -6 -4 -2 -18 9 -13 11 -18 13 -11 5 16 -19 15 -33
-3 -27 -8 4 -17 1 -21 -5 -4 -6 -3 -8 4 -4 6 3 13 2 17 -4 3 -5 1 -10 -4 -10
-6 0 -10 -6 -9 -12 2 -7 -3 -12 -10 -10 -8 1 -11 -2 -7 -8 8 -13 -34 -82 -45
-75 -5 3 -14 -5 -20 -17 -11 -22 -10 -22 4 -4 9 11 16 16 16 12 0 -14 -34 -66
-43 -66 -4 0 -6 -4 -3 -8 7 -12 -49 -94 -58 -85 -4 4 -4 0 -1 -8 3 -9 -1 -22
-10 -29 -8 -7 -15 -17 -15 -22 0 -15 -46 -78 -53 -73 -4 3 -5 2 -2 -1 5 -7
-52 -124 -61 -124 -3 0 -3 4 1 9 3 5 1 12 -4 15 -5 4 -8 -2 -6 -11 4 -26 -24
-75 -37 -67 -6 4 -8 3 -4 -4 3 -6 1 -16 -6 -24 -7 -7 -13 -19 -13 -27 0 -8 -6
-16 -13 -19 -7 -2 -10 2 -6 11 3 8 2 17 -3 20 -4 3 -8 -12 -9 -33 0 -26 -12
-55 -40 -96 -21 -33 -48 -76 -58 -96 -11 -20 -22 -35 -25 -33 -4 1 -15 -9 -25
-23 -11 -14 -14 -22 -8 -18 15 9 15 1 0 -27 -15 -29 -35 -49 -41 -39 -2 4 -2
1 -1 -6 5 -17 -31 -74 -41 -64 -5 4 -6 3 -3 -3 3 -5 -5 -30 -18 -55 l-23 -45
-1 49 c0 67 -8 55 -11 -17 -2 -48 -5 -57 -18 -52 -8 3 -12 3 -9 -1 11 -10 -9
-42 -38 -61 -28 -18 -111 -20 -129 -2 -14 14 -41 11 -114 -11 l-66 -20 -55
-110 c-30 -62 -55 -115 -56 -118 0 -4 -6 -20 -13 -37 -8 -18 -10 -49 -7 -77 3
-27 9 -70 12 -97 8 -62 -22 -133 -87 -206 -47 -53 -54 -81 -28 -111 30 -34 41
-66 35 -98 -6 -33 -59 -96 -80 -96 -27 0 -55 13 -49 23 3 6 1 7 -6 3 -16 -10
-53 3 -45 16 4 7 2 8 -4 4 -7 -4 -12 -2 -12 4 0 6 -6 18 -14 26 -16 16 -14 70
3 67 6 -2 8 4 4 14 -4 11 5 25 28 44 19 16 28 29 21 29 -10 0 -12 52 -12 245
1 135 -1 249 -4 254 -4 5 -2 12 3 16 6 3 4 14 -6 25 -9 10 -21 16 -26 13 -6
-3 -7 -1 -3 6 4 6 0 14 -9 17 -9 4 -14 13 -11 21 3 8 1 11 -4 8 -14 -9 -12 29
3 44 10 11 10 13 0 7 -24 -14 -13 16 17 46 20 19 37 28 49 25 10 -2 25 -1 32
4 15 9 46 -5 72 -32 17 -18 14 -24 -8 -19 -5 1 -6 -2 -2 -6 4 -4 14 -9 21 -10
18 -2 14 21 -6 46 -9 10 -13 22 -10 26 4 4 1 4 -6 0 -22 -13 -13 4 16 29 15
13 32 25 37 25 6 0 118 194 250 430 160 289 242 427 249 420 5 -5 15 -10 22
-10 9 0 431 761 543 978 25 48 2 18 -50 -64z m-569 -891 c0 -5 -4 -15 -10 -23
-6 -9 -5 -17 3 -22 8 -5 6 -8 -5 -8 -19 0 -63 -74 -53 -89 2 -5 -3 -15 -13
-22 -15 -13 -16 -12 -3 4 7 9 11 17 7 17 -8 0 -56 -77 -56 -90 0 -6 5 -8 12
-4 7 4 8 3 4 -5 -4 -6 -11 -9 -16 -6 -11 7 -52 -64 -44 -77 4 -6 3 -8 -3 -5
-5 3 -18 -11 -29 -31 -17 -34 -104 -187 -124 -222 -56 -93 -90 -164 -86 -176
6 -16 -23 -84 -36 -84 -4 0 2 16 14 35 11 20 18 38 15 41 -3 3 -24 -26 -47
-65 -37 -62 -70 -91 -70 -61 0 6 4 10 9 10 5 0 14 15 22 33 12 29 183 339 258
465 17 29 31 55 31 58 0 2 11 21 23 42 13 20 37 60 52 87 16 28 39 68 52 90
12 22 28 51 33 65 6 13 16 30 22 37 11 14 38 18 38 6z m-269 -516 c-10 -9 -11
-8 -5 6 3 10 9 15 12 12 3 -3 0 -11 -7 -18z m-58 -104 c-9 -25 -64 -113 -70
-113 -3 0 5 17 18 38 12 20 29 49 36 65 16 30 26 37 16 10z m258 -292 c-10 -6
-4 -12 22 -20 41 -14 107 -7 119 12 6 9 8 8 8 -3 -1 -21 -25 -51 -35 -42 -5 4
-5 2 -2 -4 3 -6 -3 -25 -13 -42 -14 -22 -25 -30 -37 -26 -14 4 -15 3 -5 -4 12
-8 11 -15 -4 -43 -10 -19 -17 -38 -15 -44 1 -5 -1 -6 -6 -2 -4 5 -22 -22 -40
-60 -31 -65 -32 -67 -33 -32 -1 84 -95 125 -185 79 -47 -24 -53 -21 -21 9 14
13 22 29 19 37 -3 8 -1 14 4 14 6 0 21 27 34 60 25 62 32 68 114 90 22 5 47
14 55 20 8 5 20 10 25 10 6 0 4 -4 -4 -9z m-98 -254 c5 16 6 16 5 -2 0 -11 3
-30 7 -43 6 -17 10 -20 21 -11 8 6 6 -4 -6 -28 -13 -28 -15 -40 -7 -45 8 -5 6
-8 -5 -8 -9 0 -22 -8 -27 -17 -6 -10 -11 -15 -11 -12 0 4 -15 -8 -34 -26 -73
-68 -183 -274 -189 -353 l-1 -24 -19 23 c-12 15 -15 25 -7 33 5 5 10 15 10 20
0 6 -5 4 -10 -4 -9 -13 -11 -13 -19 0 -7 9 -6 17 0 21 6 3 10 9 9 13 -1 4 14
21 34 38 19 16 40 45 46 64 7 19 15 32 19 30 4 -3 7 3 8 12 1 9 4 31 7 47 15
75 16 94 6 100 -6 4 -9 14 -6 22 4 9 2 21 -4 28 -8 9 -8 15 0 20 5 3 10 14 10
23 0 15 -2 15 -10 2 -5 -8 -10 -11 -10 -6 0 5 7 16 15 25 8 9 23 26 33 39 26
34 81 44 109 20 20 -19 21 -19 26 -1z m1710 -412 c-10 -7 -57 -50 -103 -94
-47 -45 -88 -82 -92 -82 -5 -1 -12 -2 -17 -3 -5 0 -13 -5 -18 -10 -5 -5 -3 -6
5 -2 21 12 13 -8 -19 -42 -16 -18 -33 -31 -38 -28 -19 12 -113 159 -98 153 9
-3 16 -3 16 1 -3 19 2 23 15 13 10 -8 16 -8 25 3 9 11 9 16 0 22 -7 4 -9 3 -5
-4 3 -6 2 -13 -3 -16 -13 -9 -22 9 -15 29 4 9 13 14 22 10 12 -4 12 -2 4 8
-15 17 15 34 73 42 83 11 121 16 147 21 23 5 27 2 23 -16 -2 -11 0 -18 6 -15
5 4 7 10 4 15 -5 9 10 14 60 22 27 5 32 -11 8 -27z m-1958 -317 l12 -37 -28
15 c-20 10 -27 19 -22 32 6 15 3 14 -18 -3 -18 -16 -17 -12 6 16 17 19 32 30
34 25 2 -6 9 -28 16 -48z M656 2528 c3 -5 10 -6 15 -3 13 9 11 12 -6 12 -8 0 -12 -4 -9 -9z M646 2507 c3 -10 9 -15 12 -12 3 3 0 11 -7 18 -10 9 -11 8 -5 -6z M581 2463 c7 -12 15 -20 18 -17 3 2 -3 12 -13 22 -17 16 -18 16 -5
-5z M606 2468 c3 -5 10 -6 15 -3 13 9 11 12 -6 12 -8 0 -12 -4 -9 -9z M477 2409 c48 -30 54 -69 18 -109 -15 -16 -27 -20 -50 -16 -22 4 -26
3 -15 -4 24 -16 42 -12 72 17 42 41 37 93 -13 118 -41 22 -49 18 -12 -6z M412 2413 c-14 -6 -36 -43 -25 -43 4 0 16 12 26 25 10 14 17 25 15
24 -2 0 -9 -3 -16 -6z M428 2389 c-22 -12 -24 -62 -3 -79 23 -19 64 -4 71 27 5 20 2 31 -16
45 -25 21 -29 21 -52 7z m50 -43 c-2 -13 -10 -21 -23 -21 -23 0 -33 34 -14 45
20 13 40 -1 37 -24z M381 2339 c0 -15 6 -32 14 -39 16 -13 21 0 6 16 -5 5 -11 18 -14 29
-4 16 -5 14 -6 -6z M363 2304 c19 -23 23 -39 7 -29 -16 10 -12 -11 5 -25 13 -11 14 -10
8 6 -6 17 -5 17 11 5 9 -8 15 -20 12 -27 -3 -7 -1 -16 5 -19 5 -4 9 -3 8 2 -3
19 2 33 12 33 5 0 7 -6 3 -12 -5 -8 0 -7 11 2 18 14 17 15 -6 18 -13 2 -40 18
-59 35 -19 18 -27 23 -17 11z M2166 1973 c-6 -14 -5 -15 5 -6 7 7 10 15 7 18 -3 3 -9 -2 -12 -12z M1907 1865 c-4 -8 -3 -16 1 -19 4 -3 9 4 9 15 2 23 -3 25 -10 4z M1856 4548 c3 -5 10 -6 15 -3 13 9 11 12 -6 12 -8 0 -12 -4 -9 -9z M2825 4490 c-4 -6 1 -7 12 -3 10 3 15 3 11 -1 -6 -7 8 -29 45 -68 9
-10 15 -18 12 -18 -3 0 -1 -6 5 -12 11 -14 170 -220 260 -338 30 -40 69 -90
85 -110 17 -21 39 -50 49 -64 11 -15 30 -39 42 -53 13 -15 20 -31 17 -36 -4
-6 -1 -7 7 -2 10 6 12 4 7 -9 -4 -9 -3 -15 2 -12 17 11 23 -28 6 -40 -9 -7
-12 -15 -7 -18 6 -3 12 1 15 9 3 7 21 22 39 31 18 9 35 18 37 20 2 1 -31 48
-72 102 -62 83 -76 109 -82 149 -4 29 -12 50 -19 50 -15 0 -12 -52 4 -72 6 -8
9 -19 5 -26 -4 -6 -4 -14 1 -18 15 -10 66 -81 68 -94 3 -18 25 -54 26 -41 0 5
-3 14 -7 20 -5 5 6 -7 24 -26 24 -27 29 -38 20 -49 -9 -11 -15 -9 -30 10 -10
13 -33 40 -50 60 -18 19 -41 48 -52 63 -60 83 -252 335 -274 361 -27 32 -39
48 -94 126 -49 70 -90 119 -98 119 -4 0 -11 -4 -14 -10z M1105 4388 c-16 -33 -29 -65 -27 -70 1 -5 -7 -25 -19 -44 -11 -19
-18 -34 -14 -34 3 0 -5 -15 -19 -33 -15 -19 -26 -41 -26 -50 0 -10 -4 -17 -10
-17 -5 0 -10 -8 -10 -18 0 -11 -11 -32 -25 -48 -14 -16 -25 -34 -25 -41 0 -6
-3 -13 -7 -15 -8 -3 -28 -38 -88 -157 -20 -39 -35 -58 -39 -50 -3 8 -3 4 0 -8
3 -14 1 -23 -6 -23 -6 0 -9 -4 -6 -9 4 -5 2 -11 -3 -13 -14 -5 -71 -127 -62
-132 5 -3 22 20 37 52 31 61 86 155 102 175 6 7 13 24 17 40 4 15 11 27 17 27
5 0 6 5 3 10 -3 6 -1 10 4 10 6 0 11 9 11 19 0 10 7 21 15 25 8 3 14 9 13 13
-3 17 22 64 32 58 6 -4 7 1 3 11 -5 13 -3 15 7 9 8 -5 11 -4 7 1 -3 5 4 28 16
51 95 182 89 173 115 166 17 -4 23 -2 18 5 -3 6 7 34 24 62 17 29 25 50 18 48
-7 -3 -22 -23 -34 -47 -13 -23 -25 -42 -29 -42 -23 -2 -22 13 4 61 32 57 36
70 24 70 -5 -1 -21 -28 -38 -62z M1776 4373 c-6 -14 -5 -15 5 -6 7 7 10 15 7 18 -3 3 -9 -2 -12 -12z M1340 4341 c0 -6 4 -13 10 -16 6 -3 7 1 4 9 -7 18 -14 21 -14 7z M886 4267 c3 -10 9 -15 12 -12 3 3 0 11 -7 18 -10 9 -11 8 -5 -6z M1805 4261 c-3 -5 -2 -12 3 -15 5 -3 9 1 9 9 0 17 -3 19 -12 6z M3210 4122 c0 -7 16 -29 36 -50 19 -20 29 -27 22 -14 -7 12 -16 22
-21 22 -4 0 -5 6 -1 13 4 6 3 8 -1 4 -5 -4 -15 3 -22 15 -7 13 -12 17 -13 10z M1063 3825 c-26 -29 -50 -90 -42 -110 l8 -20 1 20 c1 11 3 25 4 30 0
6 12 27 25 48 23 38 26 56 4 32z M3600 3819 c-16 -5 -4 -6 35 -2 33 3 62 7 64 9 8 8 -74 2 -99 -7z M995 3695 c-4 -16 -11 -32 -14 -35 -18 -15 -50 -89 -41 -95 6 -4 9
-2 8 3 -2 5 12 35 30 65 19 31 32 64 29 74 -3 13 -6 10 -12 -12z M3323 3673 c-12 -13 -19 -23 -14 -23 10 0 46 39 40 43 -2 2 -14 -7
-26 -20z M3247 3587 l-18 -32 21 21 c13 12 21 27 19 33 -2 6 -12 -4 -22 -22z M1305 3590 c-3 -5 -2 -10 4 -10 5 0 13 5 16 10 3 6 2 10 -4 10 -5 0
-13 -4 -16 -10z M920 3555 c-8 -45 -8 -47 2 -37 5 5 8 18 5 28 -3 11 -6 15 -7 9z M3207 3530 c-8 -11 -16 -17 -19 -14 -3 3 -9 0 -14 -7 -4 -8 -3 -10 4
-5 17 10 15 -2 -6 -32 -23 -33 -82 -140 -82 -147 0 -3 6 0 14 7 8 7 12 15 11
17 -2 2 7 21 21 42 13 21 24 41 24 44 0 2 16 29 35 60 34 52 42 78 12 35z M1234 3478 l-19 -23 23 19 c21 18 27 26 19 26 -2 0 -12 -10 -23 -22z M1335 3489 c-5 -8 -4 -10 3 -5 16 10 15 -6 0 -24 -7 -8 -4 -7 7 2 14
13 16 21 8 29 -8 8 -13 7 -18 -2z M876 3455 c-11 -19 -16 -38 -13 -42 4 -3 7 1 7 10 0 10 3 17 8 17 4
0 12 11 19 25 17 38 0 30 -21 -10z M2850 3455 c0 -5 5 -17 10 -25 5 -8 10 -10 10 -5 0 6 -5 17 -10 25
-5 8 -10 11 -10 5z M777 3221 c-4 -17 -3 -21 5 -13 5 5 8 16 6 23 -3 8 -7 3 -11 -10z M1040 3189 c0 -5 5 -9 10 -9 6 0 12 0 15 0 14 0 8 13 -7 16 -10 1
-18 -2 -18 -7z M2980 3171 c0 -6 4 -13 10 -16 6 -3 7 1 4 9 -7 18 -14 21 -14 7z M697 3100 c-3 -11 -3 -20 -1 -20 2 0 8 9 14 20 6 11 7 20 2 20 -6 0
-12 -9 -15 -20z M661 2939 c-47 -9 -58 -15 -48 -25 4 -4 13 -2 20 5 8 6 35 12 60 13
26 1 41 6 34 10 -7 4 -14 7 -17 7 -3 -1 -25 -5 -49 -10z M663 2880 c-47 -19 -56 -78 -18 -115 33 -34 77 -33 104 1 12 15 21
33 21 40 0 29 -25 64 -53 74 -16 5 -30 10 -31 9 -1 0 -11 -4 -23 -9z m71 -37
c15 -37 -22 -95 -47 -75 -8 7 -16 10 -18 7 -3 -2 -10 5 -17 15 -9 15 -9 20 0
20 6 0 8 3 5 6 -3 4 -2 15 4 25 11 22 65 23 73 2z M786 2847 c3 -10 9 -15 12 -12 3 3 0 11 -7 18 -10 9 -11 8 -5 -6z M940 2821 c0 -6 4 -13 10 -16 6 -3 7 1 4 9 -7 18 -14 21 -14 7z M600 2738 c-12 -22 -12 -22 6 -6 10 10 15 20 12 24 -4 3 -12 -5 -18
-18z M775 2749 c-4 -6 -5 -12 -2 -15 2 -3 7 2 10 11 7 17 1 20 -8 4z M5 2711 c-3 -5 -2 -12 3 -15 5 -3 9 1 9 9 0 17 -3 19 -12 6z M439 2693 c-1 -5 -1 -11 0 -15 0 -5 -6 -8 -15 -8 -9 0 -12 5 -8 13 4
6 -3 2 -15 -11 -13 -12 -36 -25 -52 -29 -16 -3 -29 -9 -29 -14 0 -5 -7 -9 -15
-9 -8 0 -15 -4 -15 -10 0 -5 -7 -6 -17 -3 -11 4 -14 3 -9 -5 4 -8 0 -12 -11
-12 -10 0 -27 -12 -37 -27 -12 -16 -14 -23 -5 -18 8 5 4 -3 -8 -17 -13 -13
-23 -28 -23 -33 0 -4 -8 -14 -17 -22 -14 -10 -14 -13 -3 -11 13 3 15 -29 15
-240 0 -190 3 -242 13 -242 10 0 12 54 10 259 -2 158 1 259 6 258 6 -1 18 15
28 35 15 31 33 44 114 85 62 30 98 54 100 66 1 9 0 17 -2 17 -2 0 -5 -3 -5 -7z M4885 2681 c7 -7 101 -12 250 -13 156 -2 238 -7 235 -13 -3 -6 -103
-10 -270 -10 -353 0 -340 9 -340 -224 0 -99 -4 -141 -12 -148 -19 -15 -265
-93 -292 -93 -20 0 -61 -10 -106 -27 -8 -3 -19 -7 -25 -9 -5 -2 -35 -10 -65
-19 -30 -9 -83 -24 -117 -32 -39 -9 -60 -19 -56 -26 3 -5 2 -8 -3 -4 -5 3 -38
-2 -74 -12 -47 -13 -58 -19 -42 -23 12 -3 38 0 59 8 21 7 48 13 61 14 14 0 21
4 16 11 -4 6 1 10 12 8 21 -3 103 19 119 31 9 6 28 11 105 26 8 2 23 7 35 13
40 19 61 24 95 26 19 1 63 12 97 24 34 11 71 21 82 21 11 0 22 4 25 9 3 4 19
11 35 14 17 4 40 16 51 27 18 18 20 33 20 166 0 82 4 143 9 140 5 -3 8 2 7 11
0 10 13 24 34 35 32 16 57 17 267 11 181 -5 236 -3 248 7 8 7 15 9 15 6 0 -4
9 -2 21 4 28 16 58 -11 65 -59 2 -20 6 -263 7 -541 1 -278 6 -505 10 -505 4 0
7 240 7 534 0 584 1 572 -59 603 -33 17 -542 25 -526 9z M80 2620 c-41 -41 -14 -110 43 -110 26 0 67 40 67 67 0 21 -46 63
-70 63 -11 0 -29 -9 -40 -20z m69 -26 c13 8 6 -31 -8 -48 -16 -19 -28 -20 -45
-3 -13 13 -17 59 -4 51 4 -3 8 -1 8 5 0 15 35 18 38 4 2 -7 7 -11 11 -9z M107 2559 c7 -7 15 -10 18 -7 3 3 -2 9 -12 12 -14 6 -15 5 -6 -5z M5118 2543 l-278 -3 0 -33 c1 -32 1 -32 14 -8 8 15 16 20 20 12 5 -8
79 -11 246 -11 167 0 241 3 246 11 4 8 12 3 20 -12 13 -23 13 -23 14 14 0 20
-1 36 -2 35 -2 -2 -128 -4 -280 -5z m125 -30 c-68 -2 -178 -2 -245 0 -68 1
-13 3 122 3 135 0 190 -2 123 -3z M118 2463 c7 -3 16 -2 19 1 4 3 -2 6 -13 5 -11 0 -14 -3 -6 -6z M4840 2364 c0 -21 4 -33 10 -29 6 3 10 12 10 20 0 11 46 14 260 15
222 0 260 -2 260 -14 0 -8 5 -18 10 -21 6 -4 10 8 10 29 l0 36 -280 0 -280 0
0 -36z M633 2309 c-29 -11 -53 -25 -53 -30 0 -5 12 -3 28 5 44 22 137 40
168 31 52 -15 59 -16 72 -17 7 -1 39 -26 70 -55 31 -30 75 -69 97 -87 63 -51
222 -142 231 -133 3 2 -19 17 -48 32 -87 46 -168 105 -237 173 -37 36 -84 73
-106 83 -54 25 -154 24 -222 -2z M4705 2300 c-3 -5 -1 -10 4 -10 6 0 11 5 11 10 0 6 -2 10 -4 10 -3 0
-8 -4 -11 -10z M4840 2224 c0 -21 4 -33 10 -29 6 3 10 13 10 21 0 12 40 14 260 14
253 0 260 -1 260 -20 0 -11 5 -20 10 -20 6 0 10 16 10 35 l0 35 -280 0 -280 0
0 -36z M615 2174 c-24 -12 -25 -14 -5 -8 34 10 109 11 145 1 24 -6 26 -5 12
4 -30 18 -119 20 -152 3z M790 2162 c0 -4 22 -21 49 -38 27 -17 47 -25 44 -18 -3 8 -9 14 -13
14 -4 0 -24 11 -44 25 -20 13 -36 21 -36 17z M521 2130 c-24 -16 -48 -27 -52 -24 -5 3 -6 -1 -3 -9 3 -8 -2 -17
-10 -20 -8 -3 -20 -16 -27 -29 -10 -20 -7 -19 22 7 50 44 96 75 114 75 8 0 15
7 15 15 0 20 -8 18 -59 -15z M653 2153 c9 -2 23 -2 30 0 6 3 -1 5 -18 5 -16 0 -22 -2 -12 -5z M780 2126 c0 -2 7 -7 16 -10 8 -3 12 -2 9 4 -6 10 -25 14 -25 6z M5118 2113 l-278 -3 0 -38 c1 -35 1 -36 13 -14 l13 23 252 0 c139 0
257 -1 263 -1 5 0 8 -4 5 -8 -2 -4 -1 -14 5 -22 6 -11 9 -2 9 28 0 23 -1 41
-2 40 -2 -2 -128 -4 -280 -5z M831 2097 c2 -2 18 -11 34 -21 l30 -17 -24 20 c-13 12 -28 21 -34 21
-6 0 -8 -1 -6 -3z M950 2030 c0 -5 5 -10 11 -10 5 0 7 5 4 10 -3 6 -8 10 -11 10 -2 0
-4 -4 -4 -10z M1859 2023 c-13 -16 -12 -17 4 -4 9 7 17 15 17 17 0 8 -8 3 -21 -13z M1270 2010 c8 -5 20 -10 25 -10 6 0 3 5 -5 10 -8 5 -19 10 -25 10 -5
0 -3 -5 5 -10z M940 2005 c0 -7 30 -13 34 -7 3 4 -4 9 -15 9 -10 1 -19 0 -19 -2z M987 1984 c-7 -7 14 -44 25 -44 5 0 8 7 8 15 0 8 -7 15 -16 15 -8 0
-12 5 -9 10 7 11 2 14 -8 4z M4840 1934 c0 -21 4 -33 10 -29 6 3 10 14 10 23 0 16 22 17 259 17
196 0 257 -3 250 -12 -7 -7 -6 -14 2 -19 8 -4 9 -3 5 4 -4 7 -3 12 3 12 5 0
12 -8 14 -17 3 -10 5 -1 6 20 l1 37 -280 0 -280 0 0 -36z M1023 1937 c-6 -8 0 -22 18 -40 21 -23 27 -26 32 -13 4 10 1 13 -9 9
-14 -5 -21 13 -6 19 4 2 0 11 -9 20 -13 12 -20 14 -26 5z M120 1936 c0 -2 13 -6 29 -8 17 -2 28 -1 25 4 -5 8 -54 12 -54 4z M92 1867 c-27 -29 -28 -61 -2 -87 39 -39 110 -11 110 44 0 27 -42 66
-70 66 -9 0 -26 -10 -38 -23z m73 -17 c14 -15 15 -20 4 -20 -11 0 -12 -2 -1
-9 11 -7 10 -9 -3 -15 -9 -3 -14 -9 -11 -14 2 -4 -5 -9 -16 -9 -12 -1 -22 6
-25 17 -3 11 -9 18 -13 15 -5 -3 -7 1 -6 7 3 24 17 37 31 32 8 -4 12 -11 8
-17 -3 -6 -1 -7 6 -3 9 6 9 11 0 22 -18 22 6 16 26 -6z M1087 1876 c-4 -10 -1 -13 9 -9 7 3 14 1 14 -5 0 -6 -6 -13 -12 -15
-10 -4 -10 -6 -1 -6 20 -2 26 20 11 36 -14 13 -16 13 -21 -1z M2139 1853 c-13 -16 -12 -17 4 -4 9 7 17 15 17 17 0 8 -8 3 -21 -13z M1125 1839 c-4 -6 -5 -11 -4 -13 96 -61 112 -69 90 -43 -6 8 -7 17
-3 21 4 4 -2 14 -12 22 -30 21 -42 17 -15 -6 31 -25 13 -26 -24 -1 -20 13 -25
20 -15 24 8 4 9 6 1 6 -6 1 -15 -4 -18 -10z M450 1800 c-12 -8 -11 -10 8 -10 12 0 22 5 22 10 0 13 -11 13 -30 0z M396 1783 c-6 -14 -5 -15 5 -6 7 7 10 15 7 18 -3 3 -9 -2 -12 -12z M490 1790 c0 -6 7 -10 15 -10 8 0 15 2 15 4 0 2 -7 6 -15 10 -8 3
-15 1 -15 -4z M1843 1785 c0 -8 4 -12 9 -9 5 3 6 10 3 15 -9 13 -12 11 -12 -6z M1875 1781 c3 -5 0 -15 -7 -23 -7 -7 -19 -22 -27 -33 -7 -11 0 -6 17
12 17 17 34 28 38 25 5 -4 2 1 -5 11 -14 18 -26 24 -16 8z M1260 1771 c-23 -7 -22 -8 15 -14 22 -4 67 -9 100 -12 33 -3 80 -8
105 -11 78 -10 39 4 -60 21 -52 9 -104 18 -115 20 -11 2 -31 0 -45 -4z m47 -7
c-3 -3 -12 -4 -19 -1 -8 3 -5 6 6 6 11 1 17 -2 13 -5z M551 1744 c0 -11 3 -14 6 -6 3 7 2 16 -1 19 -3 4 -6 -2 -5 -13z M561 1704 c0 -11 3 -14 6 -6 3 7 2 16 -1 19 -3 4 -6 -2 -5 -13z M1769 1672 c-14 -12 -18 -21 -11 -26 6 -3 13 -2 17 4 3 5 3 10 -1 10
-4 0 1 7 12 15 10 8 16 15 13 15 -4 0 -17 -8 -30 -18z M2735 1679 c-4 -6 -5 -12 -2 -15 2 -3 7 2 10 11 7 17 1 20 -8 4z M570 1656 c0 -8 4 -17 9 -20 5 -4 7 3 4 14 -6 23 -13 26 -13 6z M1795 1650 c-3 -6 1 -7 9 -4 18 7 21 14 7 14 -6 0 -13 -4 -16 -10z M1716 1634 c-11 -7 -18 -16 -15 -18 2 -2 13 2 23 10 11 7 18 16 15
18 -2 2 -13 -2 -23 -10z M592 1600 c0 -14 2 -19 5 -12 2 6 2 18 0 25 -3 6 -5 1 -5 -13z M1660 1600 c-12 -7 -10 -9 7 -7 12 0 19 5 17 9 -6 10 -6 10 -24 -2z M435 1589 c-4 -6 -5 -12 -2 -15 2 -3 7 2 10 11 7 17 1 20 -8 4z M1689 1573 c-13 -16 -12 -17 4 -4 9 7 17 15 17 17 0 8 -8 3 -21 -13z M611 1554 c0 -11 3 -14 6 -6 3 7 2 16 -1 19 -3 4 -6 -2 -5 -13z M1586 1545 c-8 -8 -19 -15 -25 -15 -6 0 -11 -4 -11 -8 0 -16 25 -8
47 15 12 13 18 23 13 23 -5 0 -15 -7 -24 -15z M1502 1500 c-12 -10 -28 -20 -35 -23 -6 -2 -8 -8 -4 -13 4 -5 11 -4
15 1 4 6 18 19 31 30 l24 20 -7 -20 c-6 -16 -5 -18 5 -7 22 21 -4 33 -29 12z M1549 1483 c-13 -16 -12 -17 4 -4 9 7 17 15 17 17 0 8 -8 3 -21 -13z M1723 1455 c0 -8 4 -12 9 -9 5 3 6 10 3 15 -9 13 -12 11 -12 -6z M1425 1450 c-16 -7 -17 -9 -3 -9 9 -1 20 4 23 9 7 11 7 11 -20 0z M750 1416 c0 -2 7 -7 16 -10 8 -3 12 -2 9 4 -6 10 -25 14 -25 6z M790 1401 c0 -5 7 -11 15 -15 8 -3 15 -1 15 3 0 5 -7 11 -15 15 -8 3
-15 1 -15 -3z M1298 1403 c-10 -2 -18 -9 -18 -14 0 -6 7 -6 18 -1 9 5 24 12 32 15
13 5 13 5 0 5 -8 0 -23 -2 -32 -5z M835 1380 c3 -5 8 -10 11 -10 2 0 4 5 4 10 0 6 -5 10 -11 10 -5 0 -7
-4 -4 -10z M1238 1373 c7 -3 16 -2 19 1 4 3 -2 6 -13 5 -11 0 -14 -3 -6 -6z M3868 1373 c12 -2 32 -2 45 0 12 2 2 4 -23 4 -25 0 -35 -2 -22 -4z M3953 1373 c9 -2 25 -2 35 0 9 3 1 5 -18 5 -19 0 -27 -2 -17 -5z M938 1363 c7 -3 16 -2 19 1 4 3 -2 6 -13 5 -11 0 -14 -3 -6 -6z M1178 1363 c7 -3 16 -2 19 1 4 3 -2 6 -13 5 -11 0 -14 -3 -6 -6z M3318 1360 c-35 -10 -91 -50 -83 -58 4 -4 20 -7 36 -8 16 -1 28 1 25
3 -2 3 5 14 16 25 22 22 98 36 98 18 0 -5 -9 -10 -20 -10 -16 0 -20 -7 -20
-30 l0 -30 -79 0 c-44 0 -83 5 -86 10 -4 6 -3 9 2 8 4 -2 9 0 11 5 7 22 -1 35
-23 39 -23 5 -25 2 -25 -28 l0 -34 -70 0 -70 0 0 33 c0 31 -2 33 -28 29 -25
-3 -28 -7 -24 -33 l4 -29 -60 0 c-33 0 -67 -3 -75 -6 -10 -4 -16 5 -21 29 -6
30 -9 34 -32 29 -23 -4 -25 -8 -19 -38 4 -24 2 -34 -7 -34 -7 0 -34 -11 -60
-24 l-48 -23 -18 28 c-17 27 -19 28 -40 13 l-22 -15 20 -30 c12 -16 17 -29 11
-29 -5 0 -33 -23 -62 -51 l-52 -50 -22 21 c-21 20 -22 20 -39 1 -18 -19 -17
-21 8 -43 l26 -23 -28 -57 c-26 -54 -29 -57 -58 -52 -27 5 -32 3 -36 -19 -4
-21 0 -26 23 -31 28 -5 29 -7 23 -53 -5 -34 -15 -57 -35 -78 -29 -30 -29 -33
-29 -148 0 -137 14 -159 17 -26 1 50 4 93 7 96 2 3 2 11 -1 19 -3 8 2 17 11
20 9 3 13 10 10 15 -3 5 3 9 12 9 10 0 15 3 11 6 -3 4 1 13 9 22 11 11 15 33
13 80 -2 44 1 67 9 70 7 2 21 21 31 43 11 21 14 36 8 32 -6 -4 -2 6 11 21 17
22 19 32 11 42 -6 8 -8 15 -3 15 5 1 14 2 19 3 22 3 55 28 50 37 -4 5 0 9 7 9
7 0 30 18 51 41 21 22 41 38 44 35 3 -3 27 6 54 20 27 13 49 21 49 17 0 -4 13
6 30 22 24 23 31 25 35 13 5 -12 50 -19 50 -8 0 1 24 3 54 3 35 2 56 7 59 15
3 10 9 9 25 -5 14 -12 18 -13 12 -3 -7 13 -6 13 7 2 17 -13 151 -14 142 -1 -6
10 26 20 39 12 15 -9 106 -14 139 -7 20 4 30 14 37 37 5 18 10 24 10 15 2 -30
2 -33 13 -45 7 -8 36 -13 78 -13 74 0 90 9 90 50 0 17 18 11 23 -7 3 -10 5 -4
6 13 1 28 -1 31 -25 26 -22 -4 -25 -9 -22 -33 l5 -29 -77 0 -76 0 4 35 4 35
77 2 c42 1 105 1 140 -1 35 -2 84 0 110 5 l46 7 -40 8 c-53 10 -402 10 -437
-1z m-9 -33 c-2 -1 -13 -9 -24 -17 -19 -14 -19 -14 -6 3 7 9 18 17 24 17 6 0
8 -1 6 -3z M1037 1353 c18 -2 50 -2 70 0 21 2 7 4 -32 4 -38 0 -55 -2 -38 -4z M3828 1353 c17 -2 47 -2 65 0 17 2 3 4 -33 4 -36 0 -50 -2 -32 -4z M3930 1350 c0 -5 7 -7 15 -4 8 4 15 8 15 10 0 2 -7 4 -15 4 -8 0 -15
-4 -15 -10z M4003 1353 c20 -2 54 -2 75 0 20 2 3 4 -38 4 -41 0 -58 -2 -37 -4z M4168 1353 c7 -3 16 -2 19 1 4 3 -2 6 -13 5 -11 0 -14 -3 -6 -6z M4228 1353 c17 -2 47 -2 65 0 17 2 3 4 -33 4 -36 0 -50 -2 -32 -4z M4413 1353 c15 -2 37 -2 50 0 12 2 0 4 -28 4 -27 0 -38 -2 -22 -4z M3760 1300 l0 -30 -82 0 c-53 0 -78 -4 -69 -9 19 -12 154 -1 163 13
4 6 6 17 3 24 -2 6 0 12 5 12 9 0 14 -15 8 -23 -2 -2 3 -11 11 -20 10 -13 30
-17 82 -17 37 0 71 5 74 10 4 6 -23 10 -73 10 l-79 0 5 30 c4 27 1 30 -22 30
-22 0 -26 -4 -26 -30z M3950 1305 c0 -14 5 -25 10 -25 6 0 10 7 10 15 0 8 5 15 10 15 6 0
10 -8 10 -18 0 -10 5 -23 12 -30 14 -14 127 -16 148 -2 10 7 -11 10 -67 10
l-83 0 0 30 c0 25 -4 30 -25 30 -20 0 -25 -5 -25 -25z M4151 1303 c2 -24 2 -25 6 -5 5 24 23 31 23 8 0 -8 5 -18 10 -21 6
-4 10 5 10 19 0 21 -5 26 -25 26 -21 0 -25 -4 -24 -27z M4351 1303 c2 -24 2 -25 6 -5 2 12 8 22 13 22 5 0 11 -10 13 -22 4
-20 4 -19 6 5 1 21 -4 27 -19 27 -15 0 -20 -6 -19 -27z M4541 1314 c0 -11 3 -14 6 -6 3 7 2 16 -1 19 -3 4 -6 -2 -5 -13z M4582 1305 c0 -16 2 -22 5 -12 2 9 2 23 0 30 -3 6 -5 -1 -5 -18z M4772 1310 c0 -14 2 -19 5 -12 2 6 2 18 0 25 -3 6 -5 1 -5 -13z M4200 1260 c18 -12 107 -12 135 0 13 6 -8 9 -65 9 -58 1 -80 -2 -70
-9z M4433 1263 c20 -2 54 -2 75 0 20 2 3 4 -38 4 -41 0 -58 -2 -37 -4z M4643 1263 c15 -2 39 -2 55 0 15 2 2 4 -28 4 -30 0 -43 -2 -27 -4z M2835 1153 c-43 -10 -105 -36 -105 -44 0 -5 -6 -9 -13 -9 -17 0 -118
-86 -110 -94 3 -3 -2 -8 -11 -12 -9 -3 -13 -10 -10 -15 3 -5 1 -9 -5 -9 -16 0
-40 -54 -63 -138 -28 -107 -18 -175 46 -312 17 -38 135 -150 157 -150 11 0 17
-4 14 -10 -3 -5 7 -12 22 -15 15 -4 39 -12 52 -18 28 -14 2642 -18 2700 -4 19
4 43 13 55 20 11 6 23 12 26 12 32 5 163 121 154 137 -3 4 -1 8 5 8 14 0 38
48 61 124 23 73 20 178 -6 249 -8 23 -18 50 -21 60 -3 9 -9 17 -14 17 -5 0 -9
5 -9 11 0 32 -145 159 -181 159 -10 0 -19 4 -21 9 -1 6 -16 13 -33 18 -31 8
-2655 14 -2690 6z m2663 -23 c145 -34 259 -146 298 -295 59 -221 -90 -452
-321 -494 -75 -14 -2509 -15 -2605 -1 -126 18 -246 104 -303 217 -114 225 8
501 253 569 57 16 2610 19 2678 4z M2709 1053 c-13 -16 -12 -17 4 -4 16 13 21 21 13 21 -2 0 -10 -8 -17
-17z M5345 1018 c-137 -52 -212 -165 -202 -303 9 -113 71 -201 176 -248
66 -30 171 -29 231 2 97 51 137 98 165 195 39 133 -28 272 -165 341 -42 22
-162 29 -205 13z m201 -30 c90 -33 164 -146 164 -251 0 -65 -17 -111 -60 -166
-54 -68 -111 -100 -192 -108 -139 -13 -245 62 -293 208 -27 79 2 187 69 257
80 86 187 106 312 60z M5413 883 c9 -2 25 -2 35 0 9 3 1 5 -18 5 -19 0 -27 -2 -17 -5z M5368 873 c7 -3 16 -2 19 1 4 3 -2 6 -13 5 -11 0 -14 -3 -6 -6z M5282 740 c0 -19 2 -27 5 -17 2 9 2 25 0 35 -3 9 -5 1 -5 -18z M5571 744 c0 -11 3 -14 6 -6 3 7 2 16 -1 19 -3 4 -6 -2 -5 -13z M2730 738 l0 -233 122 2 c68 2 139 3 158 4 68 3 -60 17 -162 18 l-97
1 -1 215 0 215 1170 0 1171 0 -5 -152 c-3 -84 -5 -182 -5 -218 l-1 -65 -277 3
c-251 3 -392 -2 -380 -14 2 -2 155 -5 341 -7 l336 -2 0 233 0 232 -1185 0
-1185 0 0 -232z M2590 901 c0 -6 4 -13 10 -16 6 -3 7 1 4 9 -7 18 -14 21 -14 7z M3270 520 c-44 -5 -48 -7 -20 -9 76 -5 176 -3 169 3 -10 9 -99 12
-149 6z M3660 520 c-32 -7 -33 -8 -7 -9 58 -5 172 -3 166 3 -9 8 -126 13
-159 6z M4055 520 c-26 -7 -27 -8 -7 -10 46 -5 168 -2 161 4 -10 8 -127 13
-154 6z M3075 473 c11 -12 31 -24 45 -27 l25 -6 -26 13 c-14 6 -35 18 -45 26
-16 13 -16 12 1 -6z M3195 479 c-4 -6 -5 -12 -2 -15 2 -3 7 2 10 11 7 17 1 20 -8 4z M3275 461 c-20 -39 -59 -69 -108 -82 -61 -16 -107 1 -156 59 -23 26
-41 41 -41 34 0 -8 20 -33 43 -57 35 -34 53 -45 91 -50 80 -12 159 30 185 98
14 36 6 35 -14 -2z M3360 478 c0 -29 58 -86 105 -104 56 -21 117 -13 162 22 34 25 69 81
59 92 -3 3 -6 0 -6 -7 0 -7 -5 -9 -12 -5 -7 4 -8 3 -4 -4 10 -16 -41 -70 -80
-82 -61 -20 -85 -21 -129 -1 -41 18 -43 21 -41 55 2 19 -1 33 -6 30 -5 -3 -6
-14 -3 -25 10 -29 -3 -23 -25 14 -13 20 -20 26 -20 15z M3751 487 c-2 -19 32 -68 63 -92 50 -38 118 -43 176 -13 42 21 90 76
90 102 0 6 -13 -9 -29 -32 -16 -24 -31 -40 -33 -35 -3 4 -3 3 -2 -4 2 -6 -16
-19 -38 -28 -62 -24 -123 -12 -171 36 -24 23 -36 42 -31 50 4 7 3 10 -4 5 -5
-3 -13 0 -15 6 -3 7 -6 9 -6 5z M4151 463 c34 -91 160 -129 250 -76 15 9 37 35 50 57 l22 41 -41 -46
c-52 -58 -100 -76 -162 -59 -46 13 -110 67 -110 94 0 9 -4 16 -10 16 -6 0 -6
-10 1 -27z M4230 481 c0 -5 5 -13 10 -16 6 -3 10 -2 10 4 0 5 -4 13 -10 16 -5 3
-10 2 -10 -4z M2670 477 c0 -3 11 -12 23 -20 20 -13 24 -13 24 -1 0 8 -2 12 -5 9
-3 -2 -13 0 -23 6 -11 5 -19 8 -19 6z M3472 464 c9 -9 21 -15 27 -13 6 2 -2 10 -17 17 -25 11 -25 11 -10
-4z M3545 455 c-25 -12 -26 -14 -5 -9 14 4 29 10 35 15 12 12 5 11 -30
-6z M3860 465 c0 -14 51 -24 72 -14 l23 10 -24 -5 c-13 -3 -34 -1 -47 4
-13 5 -24 7 -24 5z M4286 447 c8 -5 27 -4 42 1 25 8 23 9 -15 8 -28 0 -37 -3 -27 -9z M2366 655 c-11 -8 -15 -15 -9 -15 6 0 16 7 23 15 16 19 11 19 -14 0z M2345 460 c-16 -7 -17 -9 -3 -9 9 -1 20 4 23 9 7 11 7 11 -20 0z M1867 249 c7 -7 15 -10 18 -7 3 3 -2 9 -12 12 -14 6 -15 5 -6 -5z M1523 205 c0 -8 4 -12 9 -9 5 3 6 10 3 15 -9 13 -12 11 -12 -6z M4404 146 c1 -8 5 -18 8 -22 4 -3 5 1 4 10 -1 8 -5 18 -8 22 -4 3 -5
-1 -4 -10z M3715 100 c-8 -13 9 -20 24 -11 10 6 9 10 -3 14 -8 3 -18 2 -21 -3z M4436 88 c3 -5 10 -6 15 -3 13 9 11 12 -6 12 -8 0 -12 -4 -9 -9z"/>
</g>
</svg>