<svg id="svg" version="1.1" viewBox="0 0 300 138.8888888888889" width="300" height="138.8888888888889" xmlns="http://www.w3.org/2000/svg"><svg xmlns="http://www.w3.org/2000/svg"><defs><clipPath id="clip-1"><rect x="0" y="0" transform="scale(0.14648,0.14651)" width="2048" height="948" fill="none"/></clipPath></defs><g clip-path="url(#clip-1)" fill="none" fill-rule="nonzero" stroke="none" stroke-width="1" stroke-linecap="butt" stroke-linejoin="miter" stroke-miterlimit="10" stroke-dasharray="" stroke-dashoffset="0" font-family="none" font-weight="none" font-size="none" text-anchor="none" style="mix-blend-mode: normal"><path d="M0,0h300v138.88889h-300z" fill="#1c439e"/><path d="M82.07212,7.39238c1.00181,-0.23402 2.63027,0.48854 2.83667,1.57655c0.21196,1.10216 0.11001,2.26755 0.17739,3.38171c0.13975,2.3124 0.05918,4.8565 0.43066,7.13322c6.04087,1.51005 9.85781,2.89088 15.71147,4.90667c-1.852,2.30119 -3.39565,4.42701 -5.1312,6.79589c-1.40933,1.92349 -2.804,3.3622 -4.08765,5.47234c-2.43208,-0.76858 -4.23765,-1.55825 -6.82251,-2.2253c-8.1624,-2.1856 -16.81904,-1.60323 -24.61523,1.65612c-8.50913,3.64642 -15.85063,11.12811 -19.28262,19.73365c-3.84009,9.37661 -3.68584,19.91488 0.427,29.17516c5.4457,12.59684 18.05303,21.12796 31.52739,22.43407c6.95815,0.67452 13.56021,-0.64624 19.90986,-3.39926c0.41484,0.49944 0.8499,1.05925 1.23516,1.58448c2.53359,3.45347 5.25615,6.79603 7.72002,10.29536c-3.93135,1.9944 -12.25488,4.08594 -16.6333,4.77892c-0.18032,2.25079 -0.84844,5.36319 -0.69814,7.55055c0.43418,6.31739 -6.27891,4.75782 -10.76616,4.54964c-1.48682,-0.05963 -3.65186,-0.09743 -5.09341,0.00527c-5.10234,0.36334 -4.2605,-3.38827 -4.52021,-7.00217c-0.14282,-1.98796 -0.51416,-4.08111 -0.55693,-6.164c-5.22832,-1.21528 -10.23765,-3.23092 -14.85088,-5.97559c-9.13711,8.98207 -9.58403,8.80201 -18.55591,-0.53607c-1.18843,-1.23696 -2.65884,-2.3658 -3.73726,-3.75278c-0.83892,-1.07888 -0.68511,-3.51017 -0.23701,-4.76354c1.4877,-2.68079 3.69917,-4.9285 5.47896,-7.46132c-0.61919,-1.74153 -1.6106,-3.37567 -2.37363,-5.0293c-1.25332,-2.71668 -3.06885,-7.43436 -3.58608,-10.31455c-2.09443,-0.0104 -4.30576,-0.33389 -6.35244,-0.42531c-4.62847,-0.20687 -7.9764,0.44963 -7.92126,-5.51878c0.02282,-4.50363 -0.19699,-9.13854 0.0386,-13.6262c0.22244,-1.66212 0.68933,-2.75844 2.55423,-2.89147c3.62306,-0.25829 7.29117,0.16482 10.90948,-0.38194c2.39092,-6.19447 3.72319,-9.61044 6.68672,-15.49461c-2.4668,-2.66336 -5.10352,-5.34092 -7.26035,-8.26198c-0.49526,-0.67086 -0.26646,-3.27063 0.21914,-3.9746c1.59624,-2.3135 3.74678,-4.5407 5.78218,-6.50712c1.73276,-1.67414 3.83804,-3.8697 6.03311,-4.88177c0.6271,-0.25961 2.29878,-0.20203 2.99985,-0.18855c1.57324,0.86439 2.87285,2.50835 4.21553,3.73271c1.37651,1.25527 2.76123,2.52725 4.11108,3.81065c4.77144,-2.72416 9.15132,-4.28329 13.59229,-6.70725c0.68086,-2.88414 0.97354,-9.63058 1.20425,-12.95545c6.02461,-0.37513 13.11035,0.21075 19.28115,-0.13404z" fill="#f7d54c"/><path d="M221.11523,45.63218c3.81445,-0.03663 7.63037,-0.05348 11.44482,-0.05055c5.33789,-0.01289 11.14453,-0.49388 16.16455,1.32237c7.27588,2.6323 10.65381,8.60203 10.08691,16.18012c-0.44971,6.0298 -3.46875,10.41315 -8.95752,12.92883c4.08252,6.15067 8.00098,13.09189 12.19189,19.19802c-1.979,0.3021 -7.66846,0.19471 -9.87158,0.20086l-3.38086,-0.06886c-0.54639,-1.0172 -1.40039,-2.28756 -2.01123,-3.34051c-1.83398,-3.21994 -3.69287,-6.42537 -5.57666,-9.6163c-0.86133,-1.48588 -2.01562,-3.37494 -2.74512,-4.88997l-6.60791,-0.02696c-0.19189,5.86425 -0.09668,12.00935 -0.14502,17.90846c-3.75732,0.07926 -7.51465,0.07443 -11.27051,-0.0145c0.08789,-5.35001 -0.1084,-49.13575 0.16846,-49.6456z" fill="#fefefe"/><path d="M231.77783,55.66763c2.23242,0.02666 5.65137,0.15911 7.78564,-0.03223c6.31494,-0.56581 10.48682,4.89144 6.23291,10.38546c-3.05273,2.43876 -9.91406,1.70007 -14.02295,1.67223c-0.03809,-4.00844 -0.03662,-8.01717 0.00439,-12.02546z" fill="#1c439e"/><path d="M189.07324,45.50735c2.55176,0.17962 6.1084,0.08029 8.7334,0.06051c0.95508,1.6989 1.98926,4.39932 2.7832,6.26685l3.73096,8.63206c2.87402,6.77142 5.97949,13.44453 8.68359,20.2854c1.33008,3.36263 2.8623,6.67385 4.23779,10.02007c0.65186,1.58623 1.34912,3.08544 2.23682,4.55623c-3.83789,0.1613 -8.625,0.15999 -12.4541,0.03384c-0.64453,-2.11674 -2.90186,-7.31848 -3.79834,-9.47756l-5.02588,-0.01656l-14.59424,-0.00615c-1.32568,3.6136 -2.46826,6.08489 -3.87158,9.51784c-3.94922,0.02447 -8.18408,0.0838 -12.11279,-0.08922l14.30566,-33.26535c2.39355,-5.58749 4.55273,-11.00006 7.14551,-16.51796z" fill="#fefefe"/><path d="M193.28174,61.60865c0.50537,0.43747 5.37012,12.9908 6.06592,14.60282l-5.43457,0.02183c-2.17383,0.01524 -4.37402,-0.0145 -6.55078,-0.02622c1.67578,-3.90896 4.63477,-10.67774 5.91943,-14.59842z" fill="#1c439e"/><path d="M135.52793,45.63101c3.48662,-0.14636 7.61807,-0.04571 11.13223,-0.04146l19.54248,0.03926l0.05566,10.03809l-23.08521,0.00747c0.01582,3.10639 -0.09199,6.27066 0.03955,9.36255c6.71118,-0.04644 13.42163,-0.03384 20.13354,0.03809l-0.01025,9.82302c-6.29736,0.20555 -13.82812,0.0041 -20.2062,-0.01978l-0.0019,3.91292l0.0085,6.42639c7.14346,-0.3062 16.16396,-0.02256 23.48232,0.02198c-0.0835,3.09614 -0.22266,7.12641 0.06299,10.1279l-34.90723,0.00513c-0.04878,-16.55547 0.01597,-33.11094 0.19424,-49.66552z" fill="#fefefe"/><path d="M76.02056,44.75079c7.10845,0.03047 11.27417,1.69406 17.06777,5.45476c-2.05679,2.83023 -3.75894,5.73679 -5.54971,8.74077c-5.95093,-4.30336 -12.61553,-5.50823 -19.19473,-1.22114c-3.25605,2.12172 -5.17412,5.80037 -5.80518,9.59432c-1.43276,8.61551 3.14429,17.01154 12.22603,18.3074c5.1063,0.74323 8.72065,-0.42971 12.80435,-3.37919c0.94453,1.42112 1.83809,2.87535 2.67905,4.36006c0.78311,1.39153 1.94546,3.10097 2.83096,4.47111c-3.71265,2.89894 -10.0998,4.91503 -14.75215,5.17449c-6.80786,0.37975 -14.43311,-1.78167 -19.4959,-6.46331c-5.29395,-4.89525 -8.08579,-10.53783 -8.41772,-17.76474c-0.32388,-7.05183 1.50732,-13.78736 6.35889,-19.02353c5.50078,-5.93691 11.49346,-7.85484 19.24834,-8.251z" fill="#fefefe"/><path d="M271.16016,23.90515c0.61816,-0.29624 14.96484,-0.21537 16.51318,-0.04029c5.28809,4.59564 6.26953,21.59634 4.28174,28.15035c-0.43506,1.4305 -3.14062,7.05931 -4.4751,7.66145c-1.53516,-0.23822 0.47461,-4.39156 -1.18359,-4.76823c-1.30078,0.56772 -0.83203,3.23591 -0.9126,4.56399c-1.021,0.10168 -1.3418,0.10754 -2.36133,0.00147c-0.01758,-0.97178 0.17432,-3.67177 -0.33545,-4.30702c-0.37207,-0.15134 -0.46143,-0.12014 -0.86279,-0.05992c-0.54785,0.58163 -0.38379,3.16338 -0.6416,4.40709c-0.70752,-0.00762 -1.43262,-0.00015 -2.13281,-0.07472c-0.08789,-1.07068 0.06445,-3.84333 -0.42773,-4.34951c-0.60937,-0.02212 -0.43066,-0.09757 -0.90967,0.19603c-0.57129,0.95435 -0.2373,2.88444 -0.31055,4.1819c-0.77637,0.02666 -1.71973,0.08541 -2.48437,0.04937c-0.02783,-1.21337 0.23291,-3.4416 -0.32812,-4.26527c-0.4834,-0.27324 -0.26221,-0.21522 -0.85254,-0.18416c-0.98584,0.80667 -0.53174,3.13189 -0.57275,4.41207l-2.44775,-0.0397c-0.09375,-1.01442 -0.15088,-4.11261 -0.45703,-4.73629c-1.03418,-2.10472 -2.54297,-4.484 -3.75,-6.5458c-2.77295,-4.7335 -5.48584,-10.25697 -8.42725,-14.83723c0.46729,-0.69049 1.02246,-1.55957 1.5498,-2.17842c1.2832,-1.11726 3.30469,-2.18574 4.83252,-3.18536c1.41504,-1.02746 3.26807,-2.61091 4.85449,-3.33348c0.40137,-0.18313 0.71191,0.09039 1.07813,0.29741l0.27393,-0.15398l0.46143,0.24379l0.12158,-0.06681l-0.29297,-0.69371z" fill="#f7d54c"/><path d="M270.39697,24.92089l0.27393,-0.15398l0.46143,0.24379l0.12158,-0.06681l-0.29297,-0.69371l0.19922,-0.34502c3.21387,5.26576 4.48242,7.43817 5.34375,13.7897c-0.2124,0.72609 -0.0542,0.49695 -0.59619,0.97237c-1.00049,-4.43419 -2.68066,-10.15823 -5.51074,-13.74634z" fill="#1c439e"/><path d="M276.50391,37.69485c0.25488,2.17563 0.41016,4.60355 0.08057,6.77523c-0.2124,-1.85888 -0.40283,-3.9702 -0.67676,-5.80286c0.54199,-0.47542 0.38379,-0.24628 0.59619,-0.97237z" fill="#3c6071"/><path d="M261.375,33.34286c2.59424,-1.62462 4.08838,-3.49185 7.0957,-4.42291c-1.69629,1.50624 -3.62402,2.53135 -5.78174,4.52605c1.13525,2.46455 2.23389,4.94609 3.29443,7.44374l-0.58008,-0.05304c-1.40771,-2.68401 -2.47852,-4.82507 -4.02832,-7.49385z" fill="#1c439e"/><path d="M287.41113,47.68387c0.63428,-0.00308 1.7373,-0.07853 2.21045,0.32539l-0.1875,0.18987c-0.78955,0.31118 -1.71826,0.20965 -2.58105,0.18724c-0.67676,0.02022 -1.87207,0.14416 -2.40527,-0.21786l0.12305,-0.1868c0.90674,-0.36978 1.85303,-0.29419 2.84033,-0.29785z" fill="#88874d"/><path d="M280.62158,24.97714c0.17725,-0.03443 0.35596,-0.06256 0.53467,-0.08424c1.23633,-0.14944 4.88379,-0.19529 5.83594,0.55131c-0.78662,0.12512 -5.72314,-0.14182 -6.37061,-0.46707z" fill="#606858"/><path d="M265.9834,40.88974c0.47021,0.87392 2.74805,5.52889 2.59424,6.1514c-0.73975,-1.93316 -2.16943,-4.34101 -3.17432,-6.20444z" fill="#3b4438"/><path d="M99.10869,45.63159c2.45215,-0.05421 4.90503,-0.06974 7.35776,-0.04659c0.18428,13.00677 -0.26367,26.64352 0.15234,39.56634c7.21626,-0.06564 14.43325,-0.03047 21.64849,0.10534c0.09419,3.22829 0.03223,6.76702 0.02622,10.01113l-3.6145,0.05421c-9.77959,0.09201 -19.55977,0.10842 -29.33965,0.04879l0.01025,-49.6538z" fill="#fefefe"/><path d="M227.34375,10.19081c2.48438,-0.05153 4.96875,-0.07991 7.45459,-0.08514c1.94678,1.39078 5.31152,2.40502 7.65967,3.33587l9.95215,4.04102c0.27686,-0.14841 0.55664,-0.30005 0.87012,-0.35176c0.72217,-0.11926 11.66016,4.6122 12.81299,5.45256c0.14502,0.10651 0.17139,0.28144 0.19189,0.45784c0.09229,0.7992 -0.76465,1.83925 -1.22607,2.45092c-0.94775,-0.18914 -1.49121,-0.39044 -2.40088,-0.71745l-0.27246,0.51556c0.62109,0.28305 2.01416,0.82176 2.30859,1.38098c-0.03223,0.17625 -0.0498,0.35792 -0.13916,0.50823l-0.09082,0.77751c-1.52783,0.99962 -3.54932,2.0681 -4.83252,3.18536l-0.37354,-0.43337c-4.00635,-1.39021 -9.18164,-4.01679 -13.16016,-5.74528c-3.00879,-1.38127 -6.13623,-2.51685 -9.11865,-3.95057c-0.69434,-0.3336 -1.12646,-0.48728 -0.87012,-1.26949c0.47607,-0.28584 0.33398,-0.1112 0.51416,-0.67115c0.78955,-1.47167 0.92432,-2.26383 1.21143,-3.92332l-0.4248,0.22035c-0.79541,2.66731 -1.56885,3.34754 -3.97852,4.64868c-0.19189,0.10314 -0.38379,0.20511 -0.57715,0.30605c-2.02148,4.76222 -4.61572,9.8806 -6.88477,14.56092c-1.29199,-0.01714 -9.59326,0.15662 -10.17041,-0.28554l-0.38672,-0.51688c-0.22559,0.26708 -0.45996,0.48655 -0.71045,0.72975c-0.4541,0.07032 -0.53174,0.08893 -0.96826,-0.10182l-0.06592,-0.25478c0.44531,-1.37043 3.99609,-6.53041 4.99365,-7.91169l-0.43506,-0.28276c-2.17529,1.95133 -4.50439,7.57853 -6.93164,8.66913c-0.48193,-0.01143 -0.3252,0.06227 -0.6123,-0.23866c0.88623,-2.20362 4.21582,-5.88476 5.45801,-8.15562c0.63867,-1.16737 0.07617,-0.24056 -0.40723,-1.07932c0.36621,-1.21469 5.23242,-7.93996 6.271,-9.54392c0.23145,-0.35557 0.81445,-0.32583 1.24072,-0.37008c0.89209,-0.48025 3.49658,-4.34453 4.09863,-5.35214z" fill="#f7d54c"/><path d="M237.66064,13.2413c1.54248,0.3597 3.60791,1.26875 5.12842,1.87723c2.90479,1.14701 5.79346,2.33899 8.66162,3.57551c0.24023,0.76154 -0.22852,0.61357 0.2666,1.21411l0.31641,0.49622l-0.18311,0.19969c-3.19629,-0.85956 -7.03418,-2.7602 -10.13525,-4.03422c-0.88916,-0.3651 -2.86084,-1.41043 -3.67822,-1.59869l-0.20215,0.17801l-0.4248,0.22035z" fill="#1c439e"/><path d="M236.10938,19.74361c0.47607,-0.28584 0.33398,-0.1112 0.51416,-0.67115c0.90527,0.81106 6.96094,3.06845 8.52393,3.72729c1.92188,0.82733 3.83057,1.68469 5.72607,2.57179c0.87305,0.40084 2.40674,0.98951 3.04248,1.61319c-2.73047,-1.07566 -16.07666,-7.23599 -17.80664,-7.24112z" fill="#3b4438"/><path d="M222.15234,24.40254l0.22266,0.22152c-2.14746,3.5109 -4.44434,6.23154 -6.57568,9.97553l-0.38672,-0.51688c0.31348,-1.00138 5.78027,-8.32264 6.73975,-9.68017z" fill="#3c6071"/><path d="M218.22656,26.26143c1.26709,-1.31153 2.20898,-2.8355 3.22998,-4.25325c0.67822,-0.94102 3.14648,-5.5598 3.70166,-5.96211l0.14209,0.09977c-0.17578,0.88168 -5.89014,9.57059 -6.63867,10.39835z" fill="#606858"/><path d="M259.2583,30.70895c0.70898,-0.34986 4.57324,-2.99842 5.29688,-3.52951l-0.09082,0.77751c-1.52783,0.99962 -3.54932,2.0681 -4.83252,3.18536z" fill="#1e4664"/><path d="M251.71729,19.90814c2.20752,0.89032 3.47314,1.3171 5.44922,2.65955c-1.38428,-0.16804 -3.94043,-1.35885 -5.31592,-1.96364l0.18311,-0.19969z" fill="#1e4664"/><path d="M258.34131,23.18844c1.65674,0.32158 2.79639,0.8915 4.31689,1.58623l-0.27246,0.51556c-1.47363,-0.68946 -2.6748,-1.20575 -4.04443,-2.10179z" fill="#1e4664"/><path d="M222.15234,24.40254c0.46875,-0.69166 1.20557,-1.84687 1.73877,-2.42792l0.25635,0.07091l-0.18457,-0.15046c0.12598,-0.13493 0.05127,-0.07618 0.30908,-0.09772l-0.10254,-0.10549l0.15527,-0.03179l-0.08936,0.25829l-0.19775,-0.07662l-0.06592,0.07091l0.14209,0.23412c-0.55811,0.87362 -1.12354,1.64147 -1.73877,2.47729z" fill="#88874d"/><path d="M230.82422,13.3244c1.49854,-0.00769 2.45654,1.31292 0.9126,2.26163c-1.87207,-0.04498 -2.29248,-0.94717 -0.9126,-2.26163z" fill="#1c439e"/><path d="M110.71655,29.98418l97.83618,0.06827c-0.02051,1.46185 -0.02197,2.92399 -0.00586,4.38584c-2.73047,0.07311 -5.5166,0.00703 -8.25732,0.02139l-25.93652,-0.01172l-63.62856,-0.00103c-0.02476,-1.48749 -0.02739,-2.97512 -0.00791,-4.46276z" fill="#f7d54c"/><path d="M159.43359,104.80705c2.25879,-0.01553 5.68066,-0.26401 7.75928,0.3103c4.00049,1.10525 4.37256,5.45813 0.68848,7.49355l3.0293,4.25662l-1.9043,-0.04132l-1.49268,0.023c-0.86279,-1.07727 -2.11377,-2.741 -2.79492,-3.89402c-0.83643,-0.01582 -1.74023,0.00659 -2.58398,0.01143l0.0249,3.78824l-2.98242,0.09201c-0.02197,-1.42815 -0.16113,-11.49203 0.25635,-12.03982z" fill="#fefefe"/><path d="M162.07617,107.25826c1.43994,-0.0189 3.49365,-0.20042 4.76367,0.50735c0.8833,0.49182 0.60645,1.70827 0.07617,2.39232c-1.4209,0.65503 -3.30176,0.46296 -4.88379,0.42736z" fill="#1c439e"/><path d="M140.05444,104.77643l9.74634,0.02798l0.04834,2.47055c-2.20312,0.07501 -4.54541,0.05582 -6.75996,0.07355l-0.05259,2.17358c1.92847,0.04439 3.85796,0.04849 5.78569,0.01245l0.01025,2.12685l-5.70176,0.07838c-0.30205,0.38414 -0.16318,1.98063 -0.14927,2.55274l7.01558,-0.03135c0.08057,0.79319 0.10107,1.74476 0.13623,2.55465c-3.36475,0.07325 -6.73096,0.06681 -10.09526,-0.01934c-0.05068,-4.00653 -0.04512,-8.01365 0.01641,-12.02004z" fill="#fefefe"/><path d="M233.01563,104.82273c3.0835,-0.03311 6.16699,-0.03399 9.25049,-0.00234l0.0293,2.4288l-6.85107,0.04132l-0.05127,2.26354c1.99512,0.01656 3.99023,0.01846 5.98535,0.00601l0.03809,2.10721c-1.11328,0.00264 -5.45068,-0.16614 -6.07324,0.29111c-0.04541,0.75539 0.00146,1.60074 0.02344,2.36375c2.44189,-0.00864 4.88232,0.02681 7.32275,0.10651l0.02197,2.34646c-3.31787,0.20584 -6.95068,0.12878 -10.26416,0.00249c0.01465,-1.59019 -0.14355,-11.15096 0.20068,-11.85258z" fill="#fefefe"/><path d="M255.375,104.78859c2.42578,-0.08102 3.55518,0.20115 5.83594,1.01134l-1.38428,2.28859c-0.3252,-0.1531 -0.65332,-0.29873 -0.98437,-0.43674c-1.21143,-0.49754 -3.95508,-1.10818 -4.55273,0.48875c0.6709,1.81039 6.79102,0.95435 7.07813,4.47975c0.25928,3.17716 -1.86328,3.90544 -4.49854,4.29647c-2.35107,0.04996 -4.17334,-0.10241 -6.07324,-1.60103c0.47754,-0.6669 1.05029,-1.30069 1.58789,-1.92349c1.24951,0.69635 6.36914,2.14824 5.93994,-0.30767c-1.32422,-1.5644 -6.8042,-0.94863 -7.20996,-4.32797c-0.32959,-2.7517 2.01855,-3.60994 4.26123,-3.968z" fill="#fefefe"/><path d="M124.8835,104.79504c2.61328,-0.12219 3.34585,0.09245 5.86289,1.00504l-1.26079,2.27028c-1.39292,-0.54325 -5.15376,-1.75105 -5.96528,0.1383c0.52808,1.54536 7.50688,1.19726 7.61748,4.52986c0.0936,2.81572 -2.11172,3.89314 -4.54497,4.20622c-2.57197,-0.00132 -4.15034,-0.22313 -6.34189,-1.64484c0.5395,-0.62397 1.0311,-1.28209 1.53252,-1.93697c1.39102,0.67965 5.83564,2.20977 6.37837,-0.10094c-0.80156,-1.7427 -8.23169,-1.33366 -7.402,-5.4448c0.45249,-2.24229 2.15171,-2.73163 4.12368,-3.02215z" fill="#fefefe"/><path d="M218.48877,104.66596c2.45508,0.05743 3.23438,0.33374 5.36572,1.45833c-0.39551,0.60625 -1.12354,1.44588 -1.604,2.03176c-1.43115,-0.56186 -3.14502,-1.24165 -4.67139,-0.85428c-1.82812,0.47131 -3.2915,2.3006 -2.64404,4.20168c0.85986,2.52344 2.58105,3.3118 5.05225,2.67273c0.81152,-0.2098 1.53223,-0.51336 2.29834,-0.72506l0.33545,0.2747c0.38965,0.47527 0.96387,1.04943 1.396,1.50756c-4.18945,3.11211 -11.19287,2.33782 -12.22119,-3.78165c-0.46582,-2.77353 1.46191,-5.67804 4.11768,-6.40207c0.88184,-0.24027 1.62891,-0.31001 2.5752,-0.3837z" fill="#fefefe"/><path d="M189.14502,104.70948c1.15576,0.0334 1.7666,0.08292 2.90625,0.26576c-0.41162,0.88271 -0.88623,1.79457 -1.32422,2.66995c-1.5293,2.98538 -3.02783,6.20956 -4.47949,9.24124l-2.38184,-0.01216c-1.70801,-3.90251 -4.18066,-8.16485 -6.09814,-12.06766l3.32227,-0.01568c1.23193,2.53721 3.01172,5.56098 4.08105,7.99754c0.90234,-2.33386 2.79199,-5.78543 3.97412,-8.079z" fill="#fefefe"/><path d="M200.00098,104.72662l2.93262,0.0504c0.18457,3.85138 0.00439,8.24572 -0.08057,12.12392l-2.83154,-0.0986c0.05713,-3.96038 -0.02197,-8.09526 -0.02051,-12.07571z" fill="#fefefe"/></g></svg></svg>